<svg id="svg" version="1.1" xmlns="http://www.w3.org/2000/svg" xmlns:xlink="http://www.w3.org/1999/xlink" width="400" height="400" viewBox="0, 0, 400,400"><g id="svgg"><path id="path0" d="M129.241 26.816 C 128.317 27.485,127.044 28.880,126.412 29.916 C 124.094 33.713,122.610 35.526,120.817 36.749 L 118.983 38.000 112.672 38.000 C 104.798 38.000,103.016 38.871,100.400 44.000 C 99.131 46.488,96.950 48.676,94.035 50.387 C 91.001 52.167,89.389 53.777,87.812 56.600 C 86.249 59.400,84.618 61.021,81.565 62.813 C 78.661 64.517,76.470 66.711,75.215 69.171 C 73.938 71.675,72.128 73.490,69.212 75.193 C 66.256 76.919,64.077 79.097,62.800 81.600 C 61.561 84.028,59.400 86.231,56.859 87.653 C 53.784 89.375,52.212 90.925,50.387 94.035 C 48.676 96.950,46.488 99.131,44.000 100.400 C 38.871 103.016,38.000 104.798,38.000 112.672 L 38.000 118.983 36.749 120.817 C 35.526 122.610,33.713 124.094,29.916 126.412 C 28.880 127.044,27.485 128.317,26.816 129.241 L 25.600 130.920 25.600 200.000 L 25.600 269.080 26.816 270.759 C 27.485 271.683,28.880 272.956,29.916 273.588 C 33.713 275.906,35.526 277.390,36.749 279.183 L 38.000 281.017 38.000 287.328 C 38.000 295.202,38.871 296.984,44.000 299.600 C 46.488 300.869,48.676 303.050,50.387 305.965 C 52.167 308.999,53.777 310.611,56.600 312.188 C 59.400 313.751,61.021 315.382,62.813 318.435 C 64.517 321.339,66.711 323.530,69.171 324.785 C 71.675 326.062,73.490 327.872,75.193 330.788 C 76.919 333.744,79.097 335.923,81.600 337.200 C 84.028 338.439,86.231 340.600,87.653 343.141 C 89.375 346.216,90.925 347.788,94.035 349.613 C 96.950 351.324,99.131 353.512,100.400 356.000 C 103.016 361.129,104.798 362.000,112.672 362.000 L 118.983 362.000 120.817 363.251 C 122.610 364.474,124.094 366.287,126.412 370.084 C 127.044 371.120,128.317 372.515,129.241 373.184 L 130.920 374.400 200.000 374.400 L 269.080 374.400 270.759 373.184 C 271.683 372.515,272.956 371.120,273.588 370.084 C 275.906 366.287,277.390 364.474,279.183 363.251 L 281.017 362.000 287.328 362.000 C 295.202 362.000,296.984 361.129,299.600 356.000 C 300.869 353.512,303.050 351.324,305.965 349.613 C 309.075 347.788,310.625 346.216,312.347 343.141 C 313.769 340.600,315.972 338.439,318.400 337.200 C 320.903 335.923,323.081 333.744,324.807 330.788 C 326.510 327.872,328.325 326.062,330.829 324.785 C 333.289 323.530,335.483 321.339,337.187 318.435 C 338.979 315.382,340.600 313.751,343.400 312.188 C 346.223 310.611,347.833 308.999,349.613 305.965 C 351.324 303.050,353.512 300.869,356.000 299.600 C 361.129 296.984,362.000 295.202,362.000 287.328 L 362.000 281.017 363.251 279.183 C 364.471 277.395,366.293 275.902,370.048 273.611 C 371.064 272.991,372.414 271.804,373.048 270.974 L 374.200 269.463 374.400 243.631 L 374.600 217.800 375.771 215.400 C 376.601 213.699,377.976 212.001,380.495 209.568 L 384.048 206.136 382.324 204.627 C 378.372 201.166,377.095 199.697,375.880 197.216 L 374.600 194.600 374.400 162.569 L 374.200 130.537 373.048 129.027 C 372.414 128.196,371.064 127.009,370.048 126.389 C 366.293 124.098,364.471 122.605,363.251 120.817 L 362.000 118.983 362.000 112.672 C 362.000 104.798,361.129 103.016,356.000 100.400 C 353.512 99.131,351.324 96.950,349.613 94.035 C 347.833 91.001,346.223 89.389,343.400 87.812 C 340.600 86.249,338.979 84.618,337.187 81.565 C 335.483 78.661,333.289 76.470,330.829 75.215 C 328.325 73.938,326.510 72.128,324.807 69.212 C 323.081 66.256,320.903 64.077,318.400 62.800 C 315.972 61.561,313.769 59.400,312.347 56.859 C 310.625 53.784,309.075 52.212,305.965 50.387 C 303.050 48.676,300.869 46.488,299.600 44.000 C 296.984 38.871,295.202 38.000,287.328 38.000 L 281.017 38.000 279.183 36.749 C 277.390 35.526,275.906 33.713,273.588 29.916 C 272.956 28.880,271.683 27.485,270.759 26.816 L 269.080 25.600 200.000 25.600 L 130.920 25.600 129.241 26.816 M207.550 36.974 C 208.161 37.290,209.311 38.269,210.107 39.150 C 212.934 42.279,212.800 41.131,212.800 62.161 C 212.800 82.428,212.750 81.881,214.877 85.064 C 216.921 88.123,217.776 88.400,225.162 88.400 L 231.629 88.400 233.915 90.728 C 235.172 92.009,236.920 94.204,237.800 95.607 C 238.820 97.231,240.105 98.636,241.344 99.478 L 243.287 100.800 249.789 100.800 L 256.290 100.800 257.712 101.930 C 259.581 103.416,260.897 105.017,261.948 107.089 C 263.219 109.594,264.989 111.422,267.531 112.859 C 273.660 116.320,274.000 116.955,274.000 124.936 L 274.000 131.330 275.241 133.264 C 276.556 135.313,278.244 136.790,281.223 138.498 C 282.226 139.073,283.801 140.362,284.723 141.363 L 286.400 143.182 286.400 156.070 L 286.400 168.957 285.368 170.446 C 284.800 171.266,283.675 172.366,282.868 172.893 C 276.530 177.024,277.029 176.526,272.885 182.878 C 272.020 184.205,270.965 185.029,265.957 188.290 C 264.514 189.230,262.662 191.521,261.484 193.824 C 260.569 195.612,257.864 198.174,255.456 199.534 C 252.984 200.929,251.190 202.858,249.785 205.629 C 248.566 208.036,246.297 210.626,244.673 211.466 C 242.759 212.455,206.308 213.084,204.837 212.153 C 201.814 210.239,199.850 207.506,199.469 204.684 C 198.939 200.752,198.536 200.591,188.298 200.199 L 181.195 199.927 179.422 200.966 C 177.559 202.058,175.359 204.496,174.229 206.721 C 173.217 208.714,170.787 210.947,168.036 212.413 C 165.240 213.903,163.650 215.538,162.186 218.428 C 160.848 221.067,158.745 223.115,155.514 224.921 C 152.514 226.599,151.654 227.507,149.400 231.375 C 147.777 234.161,146.776 235.073,142.145 237.982 C 135.571 242.112,136.019 245.962,143.589 250.399 C 146.711 252.229,147.861 253.397,149.765 256.668 C 151.473 259.603,152.970 261.081,156.200 263.017 C 159.424 264.950,160.201 265.732,162.064 268.915 C 163.986 272.199,165.339 273.531,168.982 275.725 C 171.771 277.404,172.838 278.578,175.590 282.995 C 176.447 284.371,177.779 285.777,179.067 286.664 L 181.155 288.102 182.936 287.059 C 185.045 285.823,186.482 284.202,187.836 281.529 C 189.152 278.931,191.270 276.877,194.486 275.079 C 197.486 273.401,198.346 272.493,200.600 268.625 C 202.225 265.835,203.220 264.930,207.883 262.000 C 209.682 260.869,210.775 259.801,211.852 258.120 C 212.670 256.844,213.801 255.098,214.366 254.240 C 214.986 253.297,216.739 251.793,218.795 250.440 C 221.366 248.748,222.549 247.662,223.631 246.000 L 225.063 243.800 224.832 237.439 C 224.556 229.879,225.221 228.187,229.512 225.532 C 231.640 224.215,234.848 226.026,236.951 229.734 L 237.897 231.400 237.560 249.600 C 237.374 259.610,237.132 268.175,237.020 268.633 C 236.650 270.159,233.567 273.180,230.867 274.662 C 227.333 276.602,226.681 277.223,224.141 281.057 C 222.003 284.283,221.705 284.547,215.957 288.290 C 214.514 289.230,212.662 291.521,211.484 293.824 C 210.602 295.548,207.736 298.315,205.821 299.290 C 202.650 300.905,199.200 304.525,199.200 306.237 C 199.200 307.208,202.941 310.461,205.592 311.796 C 208.828 313.425,210.552 314.824,211.837 316.859 L 212.800 318.384 212.800 337.612 C 212.800 358.894,212.936 357.719,210.107 360.850 C 207.752 363.457,207.226 363.600,200.000 363.600 C 192.774 363.600,192.248 363.457,189.893 360.850 C 187.066 357.721,187.200 358.869,187.200 337.839 C 187.200 317.572,187.250 318.119,185.123 314.936 C 183.079 311.877,182.224 311.600,174.838 311.600 L 168.371 311.600 166.085 309.272 C 164.828 307.991,163.080 305.796,162.200 304.393 C 161.180 302.769,159.895 301.364,158.656 300.522 L 156.713 299.200 150.211 299.200 L 143.710 299.200 142.288 298.070 C 140.419 296.584,139.103 294.983,138.052 292.911 C 136.781 290.406,135.011 288.578,132.469 287.141 C 126.340 283.680,126.000 283.045,126.000 275.064 L 126.000 268.670 124.759 266.736 C 123.444 264.687,121.756 263.210,118.777 261.502 C 117.774 260.927,116.199 259.638,115.277 258.637 L 113.600 256.818 113.600 243.930 L 113.600 231.043 114.632 229.554 C 115.200 228.734,116.325 227.634,117.132 227.107 C 123.470 222.976,122.971 223.474,127.115 217.122 C 127.980 215.795,129.035 214.971,134.043 211.710 C 135.486 210.770,137.338 208.479,138.516 206.176 C 139.431 204.388,142.136 201.826,144.544 200.466 C 147.016 199.071,148.810 197.142,150.215 194.371 C 151.434 191.964,153.703 189.374,155.327 188.534 C 157.241 187.545,193.692 186.916,195.163 187.847 C 198.186 189.761,200.150 192.494,200.531 195.316 C 201.061 199.248,201.464 199.409,211.702 199.801 L 218.805 200.073 220.578 199.034 C 222.441 197.942,224.641 195.504,225.771 193.279 C 226.783 191.286,229.213 189.053,231.964 187.587 C 234.760 186.097,236.350 184.462,237.814 181.572 C 239.152 178.933,241.255 176.885,244.486 175.079 C 247.486 173.401,248.346 172.493,250.600 168.625 C 252.223 165.839,253.224 164.927,257.855 162.018 C 264.361 157.930,263.966 154.010,256.615 149.733 C 253.388 147.856,252.223 146.700,250.368 143.535 C 248.530 140.401,247.070 138.943,243.800 136.983 C 240.576 135.050,239.799 134.268,237.936 131.085 C 236.014 127.801,234.661 126.469,231.018 124.275 C 228.229 122.596,227.162 121.422,224.410 117.005 C 223.553 115.629,222.221 114.223,220.933 113.336 L 218.845 111.898 217.064 112.941 C 214.955 114.177,213.518 115.798,212.164 118.471 C 210.848 121.069,208.730 123.123,205.514 124.921 C 202.514 126.599,201.654 127.507,199.400 131.375 C 197.775 134.165,196.780 135.070,192.117 138.000 C 190.318 139.131,189.225 140.199,188.148 141.880 C 187.330 143.156,186.199 144.902,185.634 145.760 C 185.014 146.703,183.261 148.207,181.205 149.560 C 178.634 151.252,177.451 152.338,176.369 154.000 L 174.937 156.200 175.168 162.561 C 175.444 170.121,174.779 171.813,170.488 174.468 C 168.360 175.785,165.152 173.974,163.049 170.266 L 162.103 168.600 162.440 150.400 C 162.626 140.390,162.868 131.825,162.980 131.367 C 163.350 129.841,166.433 126.820,169.133 125.338 C 172.667 123.398,173.319 122.777,175.859 118.943 C 177.997 115.717,178.295 115.453,184.043 111.710 C 185.486 110.770,187.338 108.479,188.516 106.176 C 189.398 104.452,192.264 101.685,194.179 100.710 C 197.350 99.095,200.800 95.475,200.800 93.763 C 200.800 92.792,197.059 89.539,194.408 88.204 C 191.172 86.575,189.448 85.176,188.163 83.141 L 187.200 81.616 187.200 62.286 L 187.200 42.957 188.346 41.178 C 189.535 39.334,191.217 37.629,192.600 36.866 C 193.863 36.169,206.165 36.258,207.550 36.974 M182.033 62.200 C 182.331 92.800,182.331 92.800,191.971 92.800 C 196.018 92.800,195.413 94.468,191.127 95.127 C 185.276 96.028,183.649 97.607,182.732 103.280 C 182.133 106.984,182.043 107.071,178.093 107.760 C 172.573 108.724,170.730 110.722,170.139 116.383 C 169.830 119.336,169.690 119.458,165.978 120.015 C 157.211 121.331,157.112 121.704,157.280 152.600 C 157.414 177.100,157.411 177.076,160.140 178.763 C 162.003 179.914,166.377 180.546,170.576 180.271 C 179.348 179.696,180.050 178.608,180.305 165.200 C 180.498 155.032,180.380 155.396,183.603 155.031 C 189.791 154.331,191.549 152.667,192.442 146.660 C 192.983 143.026,193.004 143.006,196.770 142.427 C 202.691 141.518,204.335 139.762,205.031 133.603 C 205.361 130.690,205.630 130.448,209.073 129.964 C 214.770 129.164,216.954 126.954,217.466 121.472 C 217.899 116.839,219.382 116.821,220.031 121.442 C 220.831 127.134,222.859 129.168,228.527 129.964 C 232.017 130.455,232.235 130.667,232.534 133.872 C 233.040 139.290,234.841 141.306,240.017 142.249 C 244.627 143.089,244.499 142.975,245.085 146.749 C 246.033 152.861,247.575 154.280,254.096 155.041 C 258.420 155.546,257.976 156.844,253.230 157.573 C 247.309 158.482,245.665 160.238,244.969 166.397 C 244.639 169.310,244.370 169.552,240.927 170.036 C 235.234 170.836,233.046 173.047,232.535 178.519 C 232.229 181.787,231.792 182.214,228.404 182.550 C 223.012 183.085,220.831 185.269,220.036 190.927 C 219.456 195.055,219.679 194.947,212.410 194.617 C 205.145 194.286,205.619 194.561,205.155 190.414 C 204.251 182.333,203.272 182.007,180.000 182.032 C 147.585 182.067,146.399 182.353,145.167 190.438 C 144.545 194.521,144.538 194.530,141.264 195.079 C 135.191 196.099,133.654 197.576,132.732 203.280 C 132.133 206.984,132.043 207.071,128.093 207.760 C 122.601 208.719,120.780 210.668,120.156 216.253 C 119.848 219.014,119.137 219.996,117.438 220.010 C 108.489 220.080,107.237 222.960,107.214 243.523 C 107.191 264.370,107.997 266.408,116.686 267.455 C 119.930 267.846,119.913 267.795,120.075 277.400 C 120.280 289.499,121.101 291.019,128.093 292.240 C 132.050 292.931,132.132 293.011,132.742 296.775 C 133.892 303.883,135.697 304.864,148.088 305.119 C 157.591 305.315,157.072 305.099,157.669 309.120 C 158.725 316.231,161.307 317.583,173.851 317.594 C 179.621 317.599,181.198 317.716,181.573 318.168 C 182.192 318.914,182.013 361.441,181.387 362.495 C 180.794 363.492,177.286 361.076,175.744 358.608 C 172.711 353.759,172.153 353.026,170.671 351.952 L 169.080 350.800 156.440 350.799 C 141.191 350.797,140.914 350.705,137.197 344.400 C 135.410 341.368,133.294 339.232,130.882 338.025 C 128.392 336.779,126.191 334.639,124.747 332.059 C 121.530 326.309,120.142 325.600,112.109 325.600 C 106.893 325.600,105.604 325.484,104.789 324.940 C 102.789 323.606,100.705 321.350,99.751 319.486 C 98.343 316.733,96.296 314.636,93.469 313.047 C 90.637 311.456,88.608 309.443,87.018 306.650 C 85.376 303.766,83.496 301.870,80.907 300.485 C 78.679 299.294,76.430 297.266,75.060 295.211 C 74.516 294.396,74.400 293.107,74.400 287.891 C 74.400 279.875,73.686 278.470,68.000 275.284 C 65.384 273.818,63.705 272.119,62.188 269.400 C 60.617 266.585,58.616 264.581,55.600 262.803 C 49.295 259.086,49.203 258.809,49.201 243.560 L 49.200 230.920 47.984 229.241 C 47.315 228.317,45.920 227.044,44.884 226.412 C 43.848 225.779,42.227 224.778,41.281 224.187 C 38.905 222.702,36.528 219.194,37.505 218.613 C 37.950 218.349,46.834 218.116,62.200 217.967 C 95.070 217.647,92.800 218.980,92.800 200.000 C 92.800 181.020,95.070 182.353,62.200 182.033 C 46.834 181.884,37.950 181.651,37.505 181.387 C 36.528 180.806,38.905 177.298,41.281 175.813 C 42.227 175.222,43.848 174.221,44.884 173.588 C 45.920 172.956,47.315 171.683,47.984 170.759 L 49.200 169.080 49.201 156.440 C 49.203 141.191,49.295 140.914,55.600 137.197 C 58.616 135.419,60.617 133.415,62.188 130.600 C 63.705 127.881,65.384 126.182,68.000 124.716 C 73.686 121.530,74.400 120.125,74.400 112.109 C 74.400 106.893,74.516 105.604,75.060 104.789 C 76.430 102.734,78.679 100.706,80.907 99.515 C 83.496 98.130,85.376 96.234,87.018 93.350 C 88.608 90.557,90.637 88.544,93.469 86.953 C 96.296 85.364,98.343 83.267,99.751 80.514 C 100.705 78.650,102.789 76.394,104.789 75.060 C 105.604 74.516,106.893 74.400,112.109 74.400 C 120.142 74.400,121.530 73.691,124.747 67.941 C 126.191 65.361,128.392 63.221,130.882 61.975 C 133.294 60.768,135.410 58.632,137.197 55.600 C 140.914 49.295,141.191 49.203,156.440 49.201 L 169.080 49.200 170.684 48.038 C 171.566 47.399,172.808 46.045,173.444 45.028 C 174.080 44.011,175.120 42.362,175.755 41.363 C 177.325 38.895,180.799 36.515,181.387 37.505 C 181.651 37.950,181.884 46.834,182.033 62.200 M222.857 39.683 C 223.688 40.499,224.758 41.939,225.237 42.883 C 228.402 49.130,228.606 49.200,243.647 49.201 C 258.797 49.203,259.090 49.301,262.803 55.600 C 264.590 58.632,266.706 60.768,269.118 61.975 C 271.608 63.221,273.809 65.361,275.253 67.941 C 278.470 73.691,279.858 74.400,287.891 74.400 C 293.107 74.400,294.396 74.516,295.211 75.060 C 297.211 76.394,299.295 78.650,300.249 80.514 C 303.034 85.958,304.700 86.800,312.685 86.800 L 319.011 86.800 321.050 88.173 C 322.172 88.929,323.654 90.400,324.345 91.442 L 325.600 93.337 325.600 105.888 C 325.600 115.946,325.713 118.654,326.167 119.520 C 326.990 121.088,329.474 123.301,332.000 124.716 C 334.616 126.182,336.295 127.881,337.812 130.600 C 339.383 133.415,341.384 135.419,344.400 137.197 C 350.705 140.914,350.797 141.191,350.799 156.440 L 350.800 169.080 352.016 170.759 C 352.685 171.683,354.080 172.956,355.116 173.588 C 356.152 174.221,357.773 175.222,358.719 175.813 C 361.095 177.298,363.472 180.806,362.495 181.387 C 362.050 181.651,353.166 181.884,337.800 182.033 C 304.930 182.353,307.200 181.020,307.200 200.000 C 307.200 218.980,304.930 217.647,337.800 217.967 C 353.166 218.116,362.050 218.349,362.495 218.613 C 363.472 219.194,361.095 222.702,358.719 224.187 C 357.773 224.778,356.152 225.779,355.116 226.412 C 354.080 227.044,352.685 228.317,352.016 229.241 L 350.800 230.920 350.799 243.560 C 350.797 258.809,350.705 259.086,344.400 262.803 C 341.384 264.581,339.383 266.585,337.812 269.400 C 336.295 272.119,334.616 273.818,332.000 275.284 C 326.314 278.470,325.600 279.875,325.600 287.891 C 325.600 293.107,325.484 294.396,324.940 295.211 C 323.570 297.266,321.321 299.294,319.093 300.485 C 316.504 301.870,314.624 303.766,312.982 306.650 C 311.392 309.443,309.363 311.456,306.531 313.047 C 303.704 314.636,301.657 316.733,300.249 319.486 C 299.295 321.350,297.211 323.606,295.211 324.940 C 294.396 325.484,293.107 325.600,287.891 325.600 C 279.858 325.600,278.470 326.309,275.253 332.059 C 273.809 334.639,271.608 336.779,269.118 338.025 C 266.706 339.232,264.590 341.368,262.803 344.400 C 259.086 350.705,258.809 350.797,243.560 350.799 L 230.920 350.800 229.316 351.962 C 228.434 352.601,227.192 353.955,226.556 354.972 C 225.920 355.989,224.880 357.638,224.245 358.637 C 222.675 361.105,219.201 363.485,218.613 362.495 C 218.349 362.050,218.116 353.166,217.967 337.800 C 217.669 307.200,217.669 307.200,208.029 307.200 C 203.982 307.200,204.587 305.532,208.873 304.873 C 214.724 303.972,216.351 302.393,217.268 296.720 C 217.867 293.016,217.957 292.929,221.907 292.240 C 227.427 291.276,229.270 289.278,229.861 283.617 C 230.170 280.664,230.310 280.542,234.022 279.985 C 242.789 278.669,242.888 278.296,242.720 247.400 C 242.586 222.900,242.589 222.924,239.860 221.237 C 237.176 219.578,228.234 219.110,224.400 220.428 C 220.470 221.778,219.936 223.416,219.706 234.800 C 219.501 244.969,219.620 244.604,216.397 244.969 C 210.209 245.669,208.451 247.333,207.558 253.340 C 207.017 256.974,206.996 256.994,203.230 257.573 C 197.309 258.482,195.665 260.238,194.969 266.397 C 194.639 269.310,194.370 269.552,190.927 270.036 C 185.230 270.836,183.046 273.046,182.534 278.528 C 182.101 283.161,180.618 283.179,179.969 278.558 C 179.169 272.866,177.141 270.832,171.473 270.036 C 167.983 269.545,167.765 269.333,167.466 266.128 C 166.960 260.710,165.159 258.694,159.983 257.751 C 155.373 256.911,155.501 257.025,154.915 253.251 C 153.967 247.139,152.425 245.720,145.904 244.959 C 141.580 244.454,142.024 243.156,146.770 242.427 C 152.691 241.518,154.335 239.762,155.031 233.603 C 155.361 230.690,155.630 230.448,159.073 229.964 C 164.731 229.169,166.915 226.988,167.450 221.596 C 167.786 218.208,168.213 217.771,171.481 217.465 C 176.953 216.954,179.164 214.766,179.964 209.073 C 180.544 204.945,180.321 205.053,187.590 205.383 C 194.855 205.714,194.381 205.439,194.845 209.586 C 195.749 217.667,196.728 217.993,220.000 217.968 C 252.415 217.933,253.601 217.647,254.833 209.562 C 255.455 205.479,255.462 205.470,258.736 204.921 C 264.809 203.901,266.346 202.424,267.268 196.720 C 267.867 193.016,267.957 192.929,271.907 192.240 C 277.399 191.281,279.220 189.332,279.844 183.747 C 280.152 180.986,280.863 180.004,282.562 179.990 C 291.511 179.920,292.763 177.040,292.786 156.477 C 292.809 135.630,292.003 133.592,283.314 132.545 C 280.070 132.154,280.087 132.205,279.925 122.600 C 279.720 110.501,278.899 108.981,271.907 107.760 C 267.950 107.069,267.868 106.989,267.258 103.225 C 266.108 96.117,264.303 95.136,251.912 94.881 C 242.409 94.685,242.928 94.901,242.331 90.880 C 241.275 83.769,238.693 82.417,226.149 82.406 C 220.379 82.401,218.802 82.284,218.427 81.832 C 217.870 81.161,217.986 38.669,218.548 37.502 C 218.977 36.612,220.533 37.400,222.857 39.683 M83.108 188.152 C 87.289 190.820,87.997 192.537,87.997 200.000 C 87.997 207.463,87.289 209.180,83.108 211.848 L 81.616 212.800 62.388 212.800 C 41.106 212.800,42.281 212.936,39.150 210.107 C 36.543 207.752,36.400 207.226,36.400 200.000 C 36.400 192.924,36.549 192.328,38.866 190.140 C 42.167 187.022,40.720 187.203,62.308 187.201 L 81.616 187.200 83.108 188.152 M358.044 187.823 C 362.730 190.246,363.600 192.153,363.600 200.000 C 363.600 207.226,363.457 207.752,360.850 210.107 C 357.719 212.936,358.894 212.800,337.612 212.800 L 318.384 212.800 316.892 211.848 C 312.709 209.178,312.003 207.466,312.001 199.978 C 312.000 192.481,312.706 190.839,317.200 187.897 C 318.680 186.928,356.182 186.860,358.044 187.823 " stroke="none" fill="#1c1c1c" fill-rule="evenodd"></path><path id="path1" d="M69.400 19.600 C 68.969 20.297,69.608 20.892,70.231 20.374 C 70.539 20.118,70.693 19.750,70.572 19.555 C 70.280 19.083,69.706 19.105,69.400 19.600 M329.428 19.555 C 329.307 19.750,329.461 20.118,329.769 20.374 C 330.392 20.892,331.031 20.297,330.600 19.600 C 330.294 19.105,329.720 19.083,329.428 19.555 M192.029 42.291 L 190.800 43.782 190.800 62.497 L 190.800 81.212 192.100 82.598 C 193.306 83.883,193.689 84.026,197.400 84.569 C 199.600 84.891,202.528 85.507,203.907 85.937 L 206.413 86.720 207.382 85.060 C 209.197 81.949,209.200 81.916,209.200 62.465 L 209.200 43.782 207.971 42.291 L 206.742 40.800 200.000 40.800 L 193.258 40.800 192.029 42.291 M19.400 69.600 C 18.969 70.297,19.608 70.892,20.231 70.374 C 20.539 70.118,20.693 69.750,20.572 69.555 C 20.280 69.083,19.706 69.105,19.400 69.600 M379.428 69.555 C 379.307 69.750,379.461 70.118,379.769 70.374 C 380.392 70.892,381.031 70.297,380.600 69.600 C 380.294 69.105,379.720 69.083,379.428 69.555 M167.700 160.288 C 167.240 162.220,166.642 164.941,166.373 166.335 L 165.882 168.869 167.315 170.301 L 168.747 171.733 170.207 170.273 C 171.854 168.626,171.861 169.328,170.124 161.800 C 168.823 156.159,168.702 156.084,167.700 160.288 M42.291 192.029 L 40.800 193.258 40.800 200.000 L 40.800 206.742 42.291 207.971 L 43.782 209.200 62.477 209.200 L 81.172 209.200 82.586 207.959 L 84.000 206.717 84.000 200.000 L 84.000 193.283 82.586 192.041 L 81.172 190.800 62.477 190.800 L 43.782 190.800 42.291 192.029 M188.600 191.959 C 181.990 193.474,181.479 193.613,181.694 193.827 C 181.975 194.108,192.320 196.400,193.306 196.400 C 194.206 196.400,196.400 194.559,196.400 193.804 C 196.400 193.367,193.940 190.772,193.581 190.829 C 193.481 190.845,191.240 191.353,188.600 191.959 M317.414 192.041 L 316.000 193.283 316.000 200.000 L 316.000 206.717 317.414 207.959 L 318.828 209.200 337.523 209.200 L 356.218 209.200 357.709 207.971 L 359.200 206.742 359.200 200.000 L 359.200 193.258 357.709 192.029 L 356.218 190.800 337.523 190.800 L 318.828 190.800 317.414 192.041 M204.675 204.722 C 203.307 206.149,203.324 206.375,204.907 207.910 L 206.214 209.177 211.607 207.976 C 220.000 206.107,219.894 206.385,212.831 204.792 C 206.341 203.329,206.012 203.326,204.675 204.722 M229.793 229.727 C 228.146 231.374,228.139 230.672,229.876 238.200 C 230.434 240.620,231.020 242.740,231.177 242.912 C 231.457 243.216,232.651 238.711,233.627 233.665 L 234.118 231.131 232.685 229.699 L 231.253 228.267 229.793 229.727 M192.618 314.940 C 190.803 318.051,190.800 318.084,190.800 337.535 L 190.800 356.218 192.029 357.709 L 193.258 359.200 200.000 359.200 L 206.742 359.200 207.971 357.709 L 209.200 356.218 209.200 337.503 L 209.200 318.788 207.900 317.402 C 206.694 316.117,206.311 315.974,202.600 315.431 C 200.400 315.109,197.472 314.493,196.093 314.063 L 193.587 313.280 192.618 314.940 M19.390 329.615 C 18.987 330.268,19.883 331.077,20.417 330.543 C 20.706 330.254,20.656 329.978,20.253 329.644 C 19.823 329.287,19.598 329.280,19.390 329.615 M379.644 329.747 C 379.287 330.177,379.280 330.402,379.615 330.610 C 380.268 331.013,381.077 330.117,380.543 329.583 C 380.254 329.294,379.978 329.344,379.644 329.747 M69.390 379.615 C 68.987 380.268,69.883 381.077,70.417 380.543 C 70.706 380.254,70.656 379.978,70.253 379.644 C 69.823 379.287,69.598 379.280,69.390 379.615 M329.644 379.747 C 329.287 380.177,329.280 380.402,329.615 380.610 C 330.268 381.013,331.077 380.117,330.543 379.583 C 330.254 379.294,329.978 379.344,329.644 379.747 " stroke="none" fill="#e4f4fc" fill-rule="evenodd"></path><path id="path2" d="M118.800 3.200 L 118.800 6.400 109.500 6.486 C 104.385 6.533,99.343 6.527,98.296 6.473 C 97.249 6.419,96.415 6.516,96.443 6.688 C 96.567 7.436,96.361 7.759,96.062 7.286 C 95.704 6.723,94.400 7.041,94.400 7.692 C 94.400 7.915,94.699 7.851,95.064 7.549 C 95.670 7.048,95.681 7.077,95.184 7.874 C 94.885 8.355,94.536 8.684,94.408 8.605 C 94.280 8.526,94.126 10.739,94.064 13.522 C 94.002 16.304,93.915 18.618,93.870 18.664 C 93.824 18.709,89.110 18.791,83.394 18.845 C 75.184 18.924,72.811 19.065,72.100 19.518 C 71.514 19.892,71.200 19.936,71.200 19.646 C 71.200 19.401,70.990 19.200,70.733 19.200 C 70.477 19.200,70.385 19.318,70.530 19.463 C 70.892 19.825,69.995 20.844,69.555 20.572 C 69.360 20.451,69.200 20.543,69.200 20.776 C 69.200 21.009,69.401 21.200,69.646 21.200 C 69.912 21.200,69.814 21.624,69.402 22.253 C 68.918 22.991,68.783 23.737,68.949 24.753 C 69.078 25.549,69.074 27.393,68.939 28.852 L 68.694 31.504 65.647 31.465 C 59.477 31.385,56.528 31.915,56.955 33.028 C 57.071 33.328,57.037 33.654,56.880 33.751 C 56.723 33.848,56.545 36.139,56.484 38.843 C 56.353 44.720,57.147 43.943,51.122 44.083 C 48.347 44.147,46.116 44.290,46.164 44.400 C 46.271 44.645,44.503 46.369,44.326 46.193 C 44.257 46.124,44.147 48.339,44.083 51.117 C 43.943 57.148,44.720 56.353,38.843 56.484 C 36.139 56.545,33.848 56.723,33.751 56.880 C 33.654 57.037,33.328 57.071,33.028 56.955 C 31.915 56.528,31.385 59.477,31.465 65.647 L 31.504 68.694 28.852 68.939 C 27.393 69.074,25.549 69.078,24.753 68.949 C 23.737 68.783,22.991 68.918,22.253 69.402 C 21.624 69.814,21.200 69.912,21.200 69.646 C 21.200 69.401,20.990 69.200,20.733 69.200 C 20.477 69.200,20.385 69.318,20.530 69.463 C 20.892 69.825,19.995 70.844,19.555 70.572 C 19.360 70.451,19.200 70.543,19.200 70.776 C 19.200 71.009,19.401 71.200,19.646 71.200 C 19.936 71.200,19.892 71.514,19.518 72.100 C 19.065 72.811,18.924 75.184,18.845 83.394 C 18.791 89.110,18.709 93.824,18.664 93.870 C 18.618 93.915,16.304 94.002,13.522 94.064 C 10.739 94.126,8.526 94.280,8.605 94.408 C 8.684 94.536,8.355 94.885,7.874 95.184 C 7.077 95.681,7.048 95.670,7.549 95.064 C 7.851 94.699,7.915 94.400,7.692 94.400 C 7.041 94.400,6.723 95.704,7.286 96.062 C 7.759 96.361,7.436 96.567,6.688 96.443 C 6.516 96.415,6.419 97.249,6.473 98.296 C 6.527 99.343,6.533 104.385,6.486 109.500 L 6.400 118.800 3.200 118.800 L 0.000 118.800 0.000 200.000 L 0.000 281.200 3.200 281.200 L 6.400 281.200 6.486 290.500 C 6.533 295.615,6.527 300.657,6.473 301.704 C 6.419 302.751,6.516 303.585,6.688 303.557 C 7.436 303.433,7.759 303.639,7.286 303.938 C 6.723 304.296,7.041 305.600,7.692 305.600 C 7.915 305.600,7.851 305.301,7.549 304.936 C 7.048 304.330,7.077 304.319,7.874 304.816 C 8.355 305.115,8.684 305.464,8.605 305.592 C 8.526 305.720,10.739 305.874,13.522 305.936 C 16.304 305.998,18.618 306.085,18.664 306.130 C 18.709 306.176,18.791 310.890,18.845 316.606 C 18.924 324.816,19.065 327.189,19.518 327.900 C 19.892 328.486,19.936 328.800,19.646 328.800 C 19.401 328.800,19.200 329.010,19.200 329.267 C 19.200 329.523,19.318 329.615,19.463 329.470 C 19.825 329.108,20.844 330.005,20.572 330.445 C 20.451 330.640,20.543 330.800,20.776 330.800 C 21.009 330.800,21.200 330.599,21.200 330.354 C 21.200 330.088,21.624 330.186,22.253 330.598 C 22.991 331.082,23.737 331.217,24.753 331.051 C 25.549 330.922,27.393 330.926,28.852 331.061 L 31.504 331.306 31.465 334.353 C 31.385 340.523,31.915 343.472,33.028 343.045 C 33.328 342.929,33.654 342.963,33.751 343.120 C 33.848 343.277,36.139 343.455,38.843 343.516 C 44.720 343.647,43.943 342.853,44.083 348.878 C 44.147 351.653,44.290 353.884,44.400 353.836 C 44.645 353.729,46.369 355.497,46.193 355.674 C 46.124 355.743,48.339 355.853,51.117 355.917 C 57.148 356.057,56.353 355.280,56.484 361.157 C 56.545 363.861,56.723 366.152,56.880 366.249 C 57.037 366.346,57.071 366.672,56.955 366.972 C 56.528 368.085,59.477 368.615,65.647 368.535 L 68.694 368.496 68.939 371.148 C 69.074 372.607,69.078 374.451,68.949 375.247 C 68.783 376.263,68.918 377.009,69.402 377.747 C 69.814 378.376,69.912 378.800,69.646 378.800 C 69.401 378.800,69.200 379.010,69.200 379.267 C 69.200 379.523,69.318 379.615,69.463 379.470 C 69.825 379.108,70.844 380.005,70.572 380.445 C 70.451 380.640,70.543 380.800,70.776 380.800 C 71.009 380.800,71.200 380.599,71.200 380.354 C 71.200 380.064,71.514 380.108,72.100 380.482 C 72.811 380.935,75.184 381.076,83.394 381.155 C 89.110 381.209,93.824 381.291,93.870 381.336 C 93.915 381.382,94.002 383.696,94.064 386.478 C 94.126 389.261,94.280 391.474,94.408 391.395 C 94.536 391.316,94.885 391.645,95.184 392.126 C 95.681 392.923,95.670 392.952,95.064 392.451 C 94.699 392.149,94.400 392.085,94.400 392.308 C 94.400 392.959,95.704 393.277,96.062 392.714 C 96.361 392.241,96.567 392.564,96.443 393.312 C 96.415 393.484,97.249 393.581,98.296 393.527 C 99.343 393.473,104.385 393.467,109.500 393.514 L 118.800 393.600 118.800 396.800 L 118.800 400.000 200.000 400.000 L 281.200 400.000 281.200 396.800 L 281.200 393.600 290.500 393.514 C 295.615 393.467,300.657 393.473,301.704 393.527 C 302.751 393.581,303.585 393.484,303.557 393.312 C 303.433 392.564,303.639 392.241,303.938 392.714 C 304.296 393.277,305.600 392.959,305.600 392.308 C 305.600 392.085,305.301 392.149,304.936 392.451 C 304.330 392.952,304.319 392.923,304.816 392.126 C 305.115 391.645,305.464 391.316,305.592 391.395 C 305.720 391.474,305.874 389.261,305.936 386.478 C 305.998 383.696,306.085 381.382,306.130 381.336 C 306.176 381.291,310.890 381.209,316.606 381.155 C 324.816 381.076,327.189 380.935,327.900 380.482 C 328.486 380.108,328.800 380.064,328.800 380.354 C 328.800 380.599,328.991 380.800,329.224 380.800 C 329.457 380.800,329.549 380.640,329.428 380.445 C 329.156 380.005,330.175 379.108,330.537 379.470 C 330.682 379.615,330.800 379.523,330.800 379.267 C 330.800 379.010,330.599 378.800,330.354 378.800 C 330.088 378.800,330.186 378.376,330.598 377.747 C 331.082 377.009,331.217 376.263,331.051 375.247 C 330.922 374.451,330.926 372.607,331.061 371.148 L 331.306 368.496 334.353 368.535 C 340.523 368.615,343.472 368.085,343.045 366.972 C 342.929 366.672,342.963 366.346,343.120 366.249 C 343.277 366.152,343.455 363.861,343.516 361.157 C 343.647 355.280,342.852 356.057,348.883 355.917 C 351.661 355.853,353.876 355.743,353.807 355.674 C 353.631 355.497,355.355 353.729,355.600 353.836 C 355.710 353.884,355.853 351.653,355.917 348.878 C 356.057 342.853,355.280 343.647,361.157 343.516 C 363.861 343.455,366.152 343.277,366.249 343.120 C 366.346 342.963,366.672 342.929,366.972 343.045 C 368.085 343.472,368.615 340.523,368.535 334.353 L 368.496 331.306 371.148 331.061 C 372.607 330.926,374.451 330.922,375.247 331.051 C 376.263 331.217,377.009 331.082,377.747 330.598 C 378.376 330.186,378.800 330.088,378.800 330.354 C 378.800 330.599,378.991 330.800,379.224 330.800 C 379.457 330.800,379.549 330.640,379.428 330.445 C 379.156 330.005,380.175 329.108,380.537 329.470 C 380.682 329.615,380.800 329.523,380.800 329.267 C 380.800 329.010,380.599 328.800,380.354 328.800 C 380.064 328.800,380.108 328.486,380.482 327.900 C 380.935 327.189,381.076 324.816,381.155 316.606 C 381.209 310.890,381.291 306.176,381.336 306.130 C 381.382 306.085,383.696 305.998,386.478 305.936 C 389.261 305.874,391.474 305.720,391.395 305.592 C 391.316 305.464,391.645 305.115,392.126 304.816 C 392.923 304.319,392.952 304.330,392.451 304.936 C 392.149 305.301,392.085 305.600,392.308 305.600 C 392.959 305.600,393.277 304.296,392.714 303.938 C 392.241 303.639,392.564 303.433,393.312 303.557 C 393.484 303.585,393.581 302.751,393.527 301.704 C 393.473 300.657,393.467 295.615,393.514 290.500 L 393.600 281.200 396.800 281.200 L 400.000 281.200 400.000 200.000 L 400.000 118.800 396.800 118.800 L 393.600 118.800 393.514 109.500 C 393.467 104.385,393.473 99.343,393.527 98.296 C 393.581 97.249,393.484 96.415,393.312 96.443 C 392.564 96.567,392.241 96.361,392.714 96.062 C 393.277 95.704,392.959 94.400,392.308 94.400 C 392.085 94.400,392.149 94.699,392.451 95.064 C 392.952 95.670,392.923 95.681,392.126 95.184 C 391.645 94.885,391.316 94.536,391.395 94.408 C 391.474 94.280,389.261 94.126,386.478 94.064 C 383.696 94.002,381.382 93.915,381.336 93.870 C 381.291 93.824,381.209 89.110,381.155 83.394 C 381.076 75.184,380.935 72.811,380.482 72.100 C 380.108 71.514,380.064 71.200,380.354 71.200 C 380.599 71.200,380.800 70.990,380.800 70.733 C 380.800 70.477,380.682 70.385,380.537 70.530 C 380.175 70.892,379.156 69.995,379.428 69.555 C 379.549 69.360,379.457 69.200,379.224 69.200 C 378.991 69.200,378.800 69.401,378.800 69.646 C 378.800 69.912,378.376 69.814,377.747 69.402 C 377.009 68.918,376.263 68.783,375.247 68.949 C 374.451 69.078,372.607 69.074,371.148 68.939 L 368.496 68.694 368.535 65.647 C 368.615 59.477,368.085 56.528,366.972 56.955 C 366.672 57.071,366.346 57.037,366.249 56.880 C 366.152 56.723,363.861 56.545,361.157 56.484 C 355.280 56.353,356.057 57.147,355.917 51.122 C 355.853 48.347,355.710 46.116,355.600 46.164 C 355.355 46.271,353.631 44.503,353.807 44.326 C 353.876 44.257,351.661 44.147,348.883 44.083 C 342.852 43.943,343.647 44.720,343.516 38.843 C 343.455 36.139,343.277 33.848,343.120 33.751 C 342.963 33.654,342.929 33.328,343.045 33.028 C 343.472 31.915,340.523 31.385,334.353 31.465 L 331.306 31.504 331.061 28.852 C 330.926 27.393,330.922 25.549,331.051 24.753 C 331.217 23.737,331.082 22.991,330.598 22.253 C 330.186 21.624,330.088 21.200,330.354 21.200 C 330.599 21.200,330.800 20.990,330.800 20.733 C 330.800 20.477,330.682 20.385,330.537 20.530 C 330.175 20.892,329.156 19.995,329.428 19.555 C 329.549 19.360,329.457 19.200,329.224 19.200 C 328.991 19.200,328.800 19.401,328.800 19.646 C 328.800 19.936,328.486 19.892,327.900 19.518 C 327.189 19.065,324.816 18.924,316.606 18.845 C 310.890 18.791,306.176 18.709,306.130 18.664 C 306.085 18.618,305.998 16.304,305.936 13.522 C 305.874 10.739,305.720 8.526,305.592 8.605 C 305.464 8.684,305.115 8.355,304.816 7.874 C 304.319 7.077,304.330 7.048,304.936 7.549 C 305.301 7.851,305.600 7.915,305.600 7.692 C 305.600 7.041,304.296 6.723,303.938 7.286 C 303.639 7.759,303.433 7.436,303.557 6.688 C 303.585 6.516,302.751 6.419,301.704 6.473 C 300.657 6.527,295.615 6.533,290.500 6.486 L 281.200 6.400 281.200 3.200 L 281.200 0.000 200.000 0.000 L 118.800 0.000 118.800 3.200 M273.599 21.317 C 276.997 22.672,278.713 25.189,279.437 29.882 C 279.864 32.647,280.052 32.709,288.600 32.895 C 299.773 33.139,302.388 34.349,303.806 39.931 C 305.119 45.105,304.896 44.881,310.058 46.191 C 314.120 47.222,315.750 49.142,316.781 54.109 C 317.351 56.854,318.327 57.756,321.364 58.342 C 326.172 59.271,328.223 61.393,329.248 66.499 C 329.819 69.342,330.655 70.099,334.145 70.934 C 338.984 72.091,341.136 74.429,341.818 79.268 C 342.164 81.725,343.094 82.638,345.824 83.205 C 350.863 84.251,352.773 85.863,353.809 89.942 C 355.119 95.104,354.895 94.881,360.069 96.194 C 365.651 97.612,366.861 100.227,367.105 111.400 C 367.291 119.948,367.353 120.136,370.118 120.563 C 374.811 121.287,377.328 123.003,378.683 126.401 C 379.348 128.071,379.408 130.555,379.511 160.986 C 379.639 198.529,379.240 195.037,383.513 195.987 C 388.037 196.992,389.807 198.432,391.051 202.123 C 393.522 209.446,389.000 216.800,382.028 216.800 C 379.568 216.800,379.639 216.000,379.513 245.211 C 379.408 269.667,379.341 271.944,378.682 273.599 C 377.329 276.997,374.811 278.713,370.118 279.437 C 367.353 279.864,367.291 280.052,367.105 288.600 C 366.861 299.773,365.651 302.388,360.069 303.806 C 354.895 305.119,355.119 304.896,353.809 310.058 C 352.773 314.137,350.863 315.749,345.824 316.795 C 343.094 317.362,342.164 318.275,341.818 320.732 C 341.136 325.571,338.984 327.909,334.145 329.066 C 330.655 329.901,329.819 330.658,329.248 333.501 C 328.223 338.607,326.172 340.729,321.364 341.658 C 318.327 342.244,317.351 343.146,316.781 345.891 C 315.750 350.858,314.120 352.778,310.058 353.809 C 304.896 355.119,305.119 354.895,303.806 360.069 C 302.388 365.651,299.773 366.861,288.600 367.105 C 279.993 367.293,279.850 367.342,279.412 370.258 C 278.719 374.882,276.869 377.490,273.430 378.691 C 271.516 379.359,267.314 379.400,200.000 379.400 C 132.686 379.400,128.484 379.359,126.570 378.691 C 123.131 377.490,121.281 374.882,120.588 370.258 C 120.150 367.342,120.007 367.293,111.400 367.105 C 100.227 366.861,97.612 365.651,96.194 360.069 C 94.881 354.895,95.104 355.119,89.942 353.809 C 85.880 352.778,84.250 350.858,83.219 345.891 C 82.649 343.146,81.673 342.244,78.636 341.658 C 73.828 340.729,71.777 338.607,70.752 333.501 C 70.181 330.658,69.345 329.901,65.855 329.066 C 61.016 327.909,58.864 325.571,58.182 320.732 C 57.836 318.275,56.906 317.362,54.176 316.795 C 49.137 315.749,47.227 314.137,46.191 310.058 C 44.881 304.896,45.105 305.119,39.931 303.806 C 34.349 302.388,33.139 299.773,32.895 288.600 C 32.707 279.993,32.658 279.850,29.742 279.412 C 25.118 278.719,22.510 276.869,21.309 273.430 C 20.210 270.282,20.210 129.718,21.309 126.570 C 22.510 123.131,25.118 121.281,29.742 120.588 C 32.658 120.150,32.707 120.007,32.895 111.400 C 33.139 100.227,34.349 97.612,39.931 96.194 C 45.105 94.881,44.881 95.104,46.191 89.942 C 47.227 85.863,49.137 84.251,54.176 83.205 C 56.906 82.638,57.836 81.725,58.182 79.268 C 58.864 74.429,61.016 72.091,65.855 70.934 C 69.345 70.099,70.181 69.342,70.752 66.499 C 71.777 61.393,73.828 59.271,78.636 58.342 C 81.673 57.756,82.649 56.854,83.219 54.109 C 84.250 49.142,85.880 47.222,89.942 46.191 C 95.104 44.881,94.881 45.105,96.194 39.931 C 97.612 34.349,100.227 33.139,111.400 32.895 C 120.007 32.707,120.150 32.658,120.588 29.742 C 121.420 24.196,123.537 21.912,129.000 20.669 C 131.909 20.008,271.887 20.635,273.599 21.317 M191.742 40.100 C 188.565 43.426,188.800 41.644,188.800 62.418 L 188.800 81.057 189.900 82.494 C 191.608 84.725,193.188 85.790,195.859 86.514 C 199.963 87.626,202.739 88.800,204.569 90.197 L 206.310 91.526 207.529 90.784 C 210.707 88.852,210.913 87.329,211.096 64.436 C 211.277 41.905,211.439 43.564,208.761 40.633 L 206.720 38.400 200.043 38.400 L 193.367 38.400 191.742 40.100 M207.971 42.291 L 209.200 43.782 209.200 62.465 C 209.200 81.916,209.197 81.949,207.382 85.060 L 206.413 86.720 203.907 85.937 C 202.528 85.507,199.600 84.891,197.400 84.569 C 193.689 84.026,193.306 83.883,192.100 82.598 L 190.800 81.212 190.800 62.497 L 190.800 43.782 192.029 42.291 L 193.258 40.800 200.000 40.800 L 206.742 40.800 207.971 42.291 M205.810 102.369 C 205.540 103.218,202.626 106.000,202.006 106.000 C 201.790 106.000,201.174 106.866,200.638 107.925 C 199.577 110.019,196.988 112.591,195.175 113.354 C 194.547 113.618,193.476 114.603,192.795 115.543 C 192.114 116.483,190.963 117.603,190.237 118.031 C 189.480 118.478,188.609 119.494,188.194 120.414 C 187.389 122.198,184.805 124.765,182.746 125.825 C 182.006 126.207,181.110 126.851,180.754 127.258 C 179.627 128.549,176.725 129.524,172.497 130.032 C 170.241 130.303,168.239 130.721,168.049 130.962 C 167.108 132.156,165.595 144.287,165.600 150.600 C 165.603 155.010,165.342 158.826,164.761 162.873 L 163.918 168.745 164.986 170.146 C 165.573 170.916,166.645 171.997,167.367 172.548 L 168.680 173.550 170.120 172.525 C 170.912 171.962,172.016 170.842,172.574 170.038 L 173.588 168.575 172.759 162.987 C 171.264 152.908,172.995 148.210,179.216 145.463 C 182.037 144.217,182.249 143.924,182.510 140.888 C 182.971 135.531,185.533 132.970,190.888 132.511 C 194.163 132.231,194.631 131.775,194.963 128.534 C 195.588 122.431,197.491 120.646,204.280 119.792 C 206.855 119.468,206.957 119.332,207.539 115.426 C 208.511 108.910,212.265 106.606,220.669 107.368 C 227.379 107.976,229.169 109.605,230.033 115.889 C 230.554 119.681,230.316 119.446,234.163 119.975 C 240.007 120.778,241.713 122.486,242.503 128.321 C 243.030 132.216,243.050 132.238,246.388 132.518 C 252.550 133.034,255.165 135.976,255.194 142.420 C 255.202 144.212,255.788 144.798,257.580 144.806 C 265.040 144.839,267.395 147.572,267.398 156.200 C 267.401 164.387,265.527 166.940,259.112 167.489 C 255.837 167.769,255.369 168.225,255.037 171.466 C 254.412 177.569,252.509 179.354,245.720 180.208 C 243.216 180.523,242.983 180.778,242.634 183.600 C 241.830 190.084,240.435 191.578,234.313 192.513 L 231.000 193.019 229.600 195.694 C 227.765 199.200,226.695 200.289,223.800 201.601 C 220.102 203.277,219.530 203.317,213.017 202.364 C 206.226 201.371,204.637 201.491,203.077 203.119 C 201.058 205.227,201.194 206.473,203.709 208.928 L 205.914 211.081 211.257 210.311 C 214.196 209.887,220.740 209.386,225.800 209.197 C 230.860 209.008,235.540 208.738,236.200 208.597 C 236.860 208.456,238.840 208.065,240.600 207.728 C 244.672 206.950,244.636 206.986,244.947 203.256 C 245.289 199.162,246.163 196.300,247.563 194.694 C 248.184 193.982,249.064 192.668,249.517 191.773 C 250.447 189.939,253.109 187.368,254.825 186.646 C 255.453 186.382,256.524 185.397,257.205 184.457 C 257.886 183.517,259.037 182.397,259.763 181.969 C 260.520 181.522,261.391 180.506,261.806 179.586 C 262.617 177.789,265.320 175.116,267.296 174.159 C 268.013 173.812,269.090 172.829,269.688 171.975 C 270.286 171.122,271.409 170.013,272.183 169.512 L 273.590 168.600 273.592 156.200 L 273.594 143.800 272.025 142.904 C 271.162 142.411,270.059 141.303,269.575 140.441 C 269.009 139.434,268.140 138.624,267.145 138.175 C 265.014 137.214,262.985 135.144,261.753 132.675 C 260.362 129.885,257.882 127.377,255.127 125.974 C 252.393 124.581,250.339 122.553,249.128 120.051 C 247.844 117.398,245.384 114.905,242.730 113.565 C 240.053 112.213,237.936 110.228,236.802 108.003 C 236.359 107.136,235.351 105.988,234.561 105.451 C 233.771 104.914,232.685 103.828,232.148 103.038 L 231.171 101.600 218.613 101.600 C 206.575 101.600,206.044 101.632,205.810 102.369 M170.124 161.800 C 171.861 169.328,171.854 168.626,170.207 170.273 L 168.747 171.733 167.315 170.301 L 165.882 168.869 166.373 166.335 C 167.349 161.289,168.543 156.784,168.823 157.088 C 168.980 157.260,169.566 159.380,170.124 161.800 M42.789 189.459 C 42.245 189.822,41.035 190.849,40.100 191.742 L 38.400 193.367 38.400 200.000 L 38.400 206.633 40.100 208.258 C 43.426 211.435,41.644 211.200,62.418 211.200 L 81.057 211.200 82.494 210.100 C 85.923 207.475,86.000 207.252,86.000 200.000 C 86.000 192.748,85.923 192.525,82.494 189.900 L 81.057 188.800 62.418 188.800 C 45.773 188.800,43.672 188.871,42.789 189.459 M188.800 189.679 C 186.050 190.081,179.570 190.577,174.400 190.780 C 169.230 190.983,164.460 191.264,163.800 191.405 C 163.140 191.545,161.160 191.935,159.400 192.272 C 155.328 193.050,155.364 193.014,155.053 196.744 C 154.711 200.838,153.837 203.700,152.437 205.306 C 151.816 206.018,150.936 207.332,150.483 208.227 C 149.553 210.061,146.891 212.632,145.175 213.354 C 144.547 213.618,143.476 214.603,142.795 215.543 C 142.114 216.483,140.963 217.603,140.237 218.031 C 139.480 218.478,138.609 219.494,138.194 220.414 C 137.383 222.211,134.680 224.884,132.704 225.841 C 131.987 226.188,130.910 227.171,130.312 228.025 C 129.714 228.878,128.591 229.987,127.817 230.488 L 126.410 231.400 126.408 243.800 L 126.406 256.200 127.975 257.096 C 128.838 257.589,129.941 258.697,130.425 259.559 C 130.991 260.566,131.860 261.376,132.855 261.825 C 134.986 262.786,137.015 264.856,138.247 267.325 C 139.638 270.115,142.118 272.623,144.873 274.026 C 147.607 275.419,149.661 277.447,150.872 279.949 C 152.156 282.602,154.616 285.095,157.270 286.435 C 159.947 287.787,162.064 289.772,163.198 291.997 C 163.641 292.864,164.649 294.012,165.439 294.549 C 166.229 295.086,167.315 296.172,167.852 296.962 L 168.829 298.400 181.414 298.400 C 189.514 298.400,194.000 298.258,194.000 298.001 C 194.000 297.372,196.779 294.461,197.639 294.188 C 198.067 294.052,198.849 293.088,199.377 292.045 C 200.425 289.978,203.021 287.405,204.825 286.646 C 205.453 286.382,206.524 285.397,207.205 284.457 C 207.886 283.517,209.037 282.397,209.763 281.969 C 210.520 281.522,211.391 280.506,211.806 279.586 C 212.611 277.802,215.195 275.235,217.254 274.175 C 217.994 273.793,218.890 273.149,219.246 272.742 C 220.373 271.451,223.275 270.476,227.503 269.968 C 229.759 269.697,231.761 269.279,231.951 269.038 C 232.892 267.844,234.405 255.713,234.400 249.400 C 234.397 244.990,234.658 241.174,235.239 237.127 L 236.082 231.255 235.014 229.854 C 234.427 229.084,233.355 228.003,232.633 227.452 L 231.320 226.450 229.880 227.475 C 229.088 228.038,227.984 229.158,227.426 229.962 L 226.412 231.425 227.241 237.013 C 228.736 247.092,227.005 251.790,220.784 254.537 C 217.963 255.783,217.751 256.076,217.490 259.112 C 217.029 264.469,214.467 267.030,209.112 267.489 C 205.837 267.769,205.369 268.225,205.037 271.466 C 204.412 277.569,202.509 279.354,195.720 280.208 C 193.145 280.532,193.043 280.668,192.461 284.574 C 191.489 291.090,187.735 293.394,179.331 292.632 C 172.621 292.024,170.831 290.395,169.967 284.111 C 169.446 280.319,169.684 280.554,165.837 280.025 C 159.993 279.222,158.287 277.514,157.497 271.679 C 156.970 267.784,156.950 267.762,153.612 267.482 C 147.450 266.966,144.835 264.024,144.806 257.580 C 144.798 255.788,144.212 255.202,142.420 255.194 C 134.960 255.161,132.605 252.428,132.602 243.800 C 132.599 235.613,134.473 233.060,140.888 232.511 C 144.163 232.231,144.631 231.775,144.963 228.534 C 145.588 222.431,147.491 220.646,154.280 219.792 C 156.784 219.477,157.017 219.222,157.366 216.400 C 158.170 209.916,159.565 208.422,165.687 207.487 L 169.000 206.981 170.400 204.306 C 172.233 200.804,173.302 199.714,176.200 198.391 C 179.831 196.734,180.615 196.677,186.836 197.619 C 193.449 198.621,195.228 198.506,196.825 196.976 C 199.107 194.790,198.639 192.689,195.292 190.101 L 193.800 188.947 188.800 189.679 M317.506 189.900 C 314.077 192.525,314.000 192.748,314.000 200.000 C 314.000 207.252,314.077 207.475,317.506 210.100 L 318.943 211.200 337.582 211.200 C 358.356 211.200,356.574 211.435,359.900 208.258 L 361.600 206.633 361.600 200.000 L 361.600 193.367 359.900 191.742 C 356.574 188.565,358.356 188.800,337.582 188.800 L 318.943 188.800 317.506 189.900 M82.586 192.041 L 84.000 193.283 84.000 200.000 L 84.000 206.717 82.586 207.959 L 81.172 209.200 62.477 209.200 L 43.782 209.200 42.291 207.971 L 40.800 206.742 40.800 200.000 L 40.800 193.258 42.291 192.029 L 43.782 190.800 62.477 190.800 L 81.172 190.800 82.586 192.041 M195.081 192.078 C 196.687 193.635,196.707 193.956,195.278 195.325 C 193.878 196.667,193.624 196.663,187.169 195.208 C 181.299 193.884,181.008 193.765,182.653 193.349 C 183.782 193.064,193.228 190.885,193.581 190.829 C 193.680 190.813,194.355 191.375,195.081 192.078 M357.709 192.029 L 359.200 193.258 359.200 200.000 L 359.200 206.742 357.709 207.971 L 356.218 209.200 337.523 209.200 L 318.828 209.200 317.414 207.959 L 316.000 206.717 316.000 200.000 L 316.000 193.283 317.414 192.041 L 318.828 190.800 337.523 190.800 L 356.218 190.800 357.709 192.029 M212.831 204.792 C 219.894 206.385,220.000 206.107,211.607 207.976 L 206.214 209.177 204.907 207.910 C 203.324 206.375,203.307 206.149,204.675 204.722 C 206.012 203.326,206.341 203.329,212.831 204.792 M233.627 233.665 C 232.651 238.711,231.457 243.216,231.177 242.912 C 231.020 242.740,230.434 240.620,229.876 238.200 C 228.139 230.672,228.146 231.374,229.793 229.727 L 231.253 228.267 232.685 229.699 L 234.118 231.131 233.627 233.665 M192.471 309.216 C 189.293 311.148,189.087 312.671,188.904 335.564 C 188.723 358.095,188.561 356.436,191.239 359.367 L 193.280 361.600 199.957 361.600 L 206.633 361.600 208.258 359.900 C 211.435 356.574,211.200 358.356,211.200 337.582 L 211.200 318.943 210.100 317.506 C 208.392 315.275,206.812 314.210,204.141 313.486 C 200.037 312.374,197.261 311.200,195.431 309.803 L 193.690 308.474 192.471 309.216 M202.600 315.431 C 206.311 315.974,206.694 316.117,207.900 317.402 L 209.200 318.788 209.200 337.503 L 209.200 356.218 207.971 357.709 L 206.742 359.200 200.000 359.200 L 193.258 359.200 192.029 357.709 L 190.800 356.218 190.800 337.535 C 190.800 318.084,190.803 318.051,192.618 314.940 L 193.587 313.280 196.093 314.063 C 197.472 314.493,200.400 315.109,202.600 315.431 " stroke="none" fill="#84d5f9" fill-rule="evenodd"></path><path id="path3" d="M93.737 15.800 C 93.739 17.560,93.809 18.230,93.893 17.289 C 93.978 16.349,93.977 14.909,93.891 14.089 C 93.805 13.270,93.736 14.040,93.737 15.800 M306.137 15.800 C 306.139 17.560,306.209 18.230,306.293 17.289 C 306.378 16.349,306.377 14.909,306.291 14.089 C 306.205 13.270,306.136 14.040,306.137 15.800 M70.400 19.092 C 70.730 19.217,71.132 19.518,71.294 19.760 C 71.475 20.031,71.590 19.932,71.594 19.500 C 71.598 19.030,71.305 18.810,70.700 18.832 C 70.099 18.853,69.999 18.939,70.400 19.092 M328.406 19.500 C 328.410 19.932,328.525 20.031,328.706 19.760 C 328.868 19.518,329.270 19.217,329.600 19.092 C 330.001 18.939,329.901 18.853,329.300 18.832 C 328.695 18.810,328.402 19.030,328.406 19.500 M68.832 20.700 C 68.810 21.305,69.030 21.598,69.500 21.594 C 69.932 21.590,70.031 21.475,69.760 21.294 C 69.518 21.132,69.217 20.730,69.092 20.400 C 68.939 19.999,68.853 20.099,68.832 20.700 M330.800 20.567 C 330.800 20.878,330.575 21.224,330.300 21.335 C 330.001 21.456,330.082 21.550,330.500 21.568 C 330.944 21.588,331.200 21.307,331.200 20.800 C 331.200 20.360,331.110 20.000,331.000 20.000 C 330.890 20.000,330.800 20.255,330.800 20.567 M129.000 20.669 C 123.537 21.912,121.420 24.196,120.588 29.742 C 120.150 32.658,120.007 32.707,111.400 32.895 C 100.227 33.139,97.612 34.349,96.194 39.931 C 94.881 45.105,95.104 44.881,89.942 46.191 C 85.880 47.222,84.250 49.142,83.219 54.109 C 82.649 56.854,81.673 57.756,78.636 58.342 C 73.828 59.271,71.777 61.393,70.752 66.499 C 70.181 69.342,69.345 70.099,65.855 70.934 C 61.016 72.091,58.864 74.429,58.182 79.268 C 57.836 81.725,56.906 82.638,54.176 83.205 C 49.137 84.251,47.227 85.863,46.191 89.942 C 44.881 95.104,45.105 94.881,39.931 96.194 C 34.349 97.612,33.139 100.227,32.895 111.400 C 32.707 120.007,32.658 120.150,29.742 120.588 C 25.118 121.281,22.510 123.131,21.309 126.570 C 20.210 129.718,20.210 270.282,21.309 273.430 C 22.510 276.869,25.118 278.719,29.742 279.412 C 32.658 279.850,32.707 279.993,32.895 288.600 C 33.139 299.773,34.349 302.388,39.931 303.806 C 45.105 305.119,44.881 304.896,46.191 310.058 C 47.227 314.137,49.137 315.749,54.176 316.795 C 56.906 317.362,57.836 318.275,58.182 320.732 C 58.864 325.571,61.016 327.909,65.855 329.066 C 69.345 329.901,70.181 330.658,70.752 333.501 C 71.777 338.607,73.828 340.729,78.636 341.658 C 81.673 342.244,82.649 343.146,83.219 345.891 C 84.250 350.858,85.880 352.778,89.942 353.809 C 95.104 355.119,94.881 354.895,96.194 360.069 C 97.612 365.651,100.227 366.861,111.400 367.105 C 120.007 367.293,120.150 367.342,120.588 370.258 C 121.281 374.882,123.131 377.490,126.570 378.691 C 128.484 379.359,132.686 379.400,200.000 379.400 C 267.314 379.400,271.516 379.359,273.430 378.691 C 276.869 377.490,278.719 374.882,279.412 370.258 C 279.850 367.342,279.993 367.293,288.600 367.105 C 299.773 366.861,302.388 365.651,303.806 360.069 C 305.119 354.895,304.896 355.119,310.058 353.809 C 314.120 352.778,315.750 350.858,316.781 345.891 C 317.351 343.146,318.327 342.244,321.364 341.658 C 326.172 340.729,328.223 338.607,329.248 333.501 C 329.819 330.658,330.655 329.901,334.145 329.066 C 338.984 327.909,341.136 325.571,341.818 320.732 C 342.164 318.275,343.094 317.362,345.824 316.795 C 350.863 315.749,352.773 314.137,353.809 310.058 C 355.119 304.896,354.895 305.119,360.069 303.806 C 365.651 302.388,366.861 299.773,367.105 288.600 C 367.291 280.052,367.353 279.864,370.118 279.437 C 374.811 278.713,377.329 276.997,378.682 273.599 C 379.341 271.944,379.408 269.667,379.513 245.211 C 379.639 216.000,379.568 216.800,382.028 216.800 C 389.000 216.800,393.522 209.446,391.051 202.123 C 389.807 198.432,388.037 196.992,383.513 195.987 C 379.240 195.037,379.639 198.529,379.511 160.986 C 379.408 130.555,379.348 128.071,378.683 126.401 C 377.328 123.003,374.811 121.287,370.118 120.563 C 367.353 120.136,367.291 119.948,367.105 111.400 C 366.861 100.227,365.651 97.612,360.069 96.194 C 354.895 94.881,355.119 95.104,353.809 89.942 C 352.773 85.863,350.863 84.251,345.824 83.205 C 343.094 82.638,342.164 81.725,341.818 79.268 C 341.136 74.429,338.984 72.091,334.145 70.934 C 330.655 70.099,329.819 69.342,329.248 66.499 C 328.223 61.393,326.172 59.271,321.364 58.342 C 318.327 57.756,317.351 56.854,316.781 54.109 C 315.750 49.142,314.120 47.222,310.058 46.191 C 304.896 44.881,305.119 45.105,303.806 39.931 C 302.388 34.349,299.773 33.139,288.600 32.895 C 280.052 32.709,279.864 32.647,279.437 29.882 C 278.713 25.189,276.997 22.672,273.599 21.317 C 271.887 20.635,131.909 20.008,129.000 20.669 M270.759 26.816 C 271.683 27.485,272.956 28.880,273.588 29.916 C 275.906 33.713,277.390 35.526,279.183 36.749 L 281.017 38.000 287.328 38.000 C 295.202 38.000,296.984 38.871,299.600 44.000 C 300.869 46.488,303.050 48.676,305.965 50.387 C 309.075 52.212,310.625 53.784,312.347 56.859 C 313.769 59.400,315.972 61.561,318.400 62.800 C 320.903 64.077,323.081 66.256,324.807 69.212 C 326.510 72.128,328.325 73.938,330.829 75.215 C 333.289 76.470,335.483 78.661,337.187 81.565 C 338.979 84.618,340.600 86.249,343.400 87.812 C 346.223 89.389,347.833 91.001,349.613 94.035 C 351.324 96.950,353.512 99.131,356.000 100.400 C 361.129 103.016,362.000 104.798,362.000 112.672 L 362.000 118.983 363.251 120.817 C 364.471 122.605,366.293 124.098,370.048 126.389 C 371.064 127.009,372.414 128.196,373.048 129.027 L 374.200 130.537 374.400 162.569 L 374.600 194.600 375.880 197.216 C 377.095 199.697,378.372 201.166,382.324 204.627 L 384.048 206.136 380.495 209.568 C 377.976 212.001,376.601 213.699,375.771 215.400 L 374.600 217.800 374.400 243.631 L 374.200 269.463 373.048 270.974 C 372.414 271.804,371.064 272.991,370.048 273.611 C 366.293 275.902,364.471 277.395,363.251 279.183 L 362.000 281.017 362.000 287.328 C 362.000 295.202,361.129 296.984,356.000 299.600 C 353.512 300.869,351.324 303.050,349.613 305.965 C 347.833 308.999,346.223 310.611,343.400 312.188 C 340.600 313.751,338.979 315.382,337.187 318.435 C 335.483 321.339,333.289 323.530,330.829 324.785 C 328.325 326.062,326.510 327.872,324.807 330.788 C 323.081 333.744,320.903 335.923,318.400 337.200 C 315.972 338.439,313.769 340.600,312.347 343.141 C 310.625 346.216,309.075 347.788,305.965 349.613 C 303.050 351.324,300.869 353.512,299.600 356.000 C 296.984 361.129,295.202 362.000,287.328 362.000 L 281.017 362.000 279.183 363.251 C 277.390 364.474,275.906 366.287,273.588 370.084 C 272.956 371.120,271.683 372.515,270.759 373.184 L 269.080 374.400 200.000 374.400 L 130.920 374.400 129.241 373.184 C 128.317 372.515,127.044 371.120,126.412 370.084 C 124.094 366.287,122.610 364.474,120.817 363.251 L 118.983 362.000 112.672 362.000 C 104.798 362.000,103.016 361.129,100.400 356.000 C 99.131 353.512,96.950 351.324,94.035 349.613 C 90.925 347.788,89.375 346.216,87.653 343.141 C 86.231 340.600,84.028 338.439,81.600 337.200 C 79.097 335.923,76.919 333.744,75.193 330.788 C 73.490 327.872,71.675 326.062,69.171 324.785 C 66.711 323.530,64.517 321.339,62.813 318.435 C 61.021 315.382,59.400 313.751,56.600 312.188 C 53.777 310.611,52.167 308.999,50.387 305.965 C 48.676 303.050,46.488 300.869,44.000 299.600 C 38.871 296.984,38.000 295.202,38.000 287.328 L 38.000 281.017 36.749 279.183 C 35.526 277.390,33.713 275.906,29.916 273.588 C 28.880 272.956,27.485 271.683,26.816 270.759 L 25.600 269.080 25.600 200.000 L 25.600 130.920 26.816 129.241 C 27.485 128.317,28.880 127.044,29.916 126.412 C 33.713 124.094,35.526 122.610,36.749 120.817 L 38.000 118.983 38.000 112.672 C 38.000 104.798,38.871 103.016,44.000 100.400 C 46.488 99.131,48.676 96.950,50.387 94.035 C 52.212 90.925,53.784 89.375,56.859 87.653 C 59.400 86.231,61.561 84.028,62.800 81.600 C 64.077 79.097,66.256 76.919,69.212 75.193 C 72.128 73.490,73.938 71.675,75.215 69.171 C 76.470 66.711,78.661 64.517,81.565 62.813 C 84.618 61.021,86.249 59.400,87.812 56.600 C 89.389 53.777,91.001 52.167,94.035 50.387 C 96.950 48.676,99.131 46.488,100.400 44.000 C 103.016 38.871,104.798 38.000,112.672 38.000 L 118.983 38.000 120.817 36.749 C 122.610 35.526,124.094 33.713,126.412 29.916 C 127.044 28.880,128.317 27.485,129.241 26.816 L 130.920 25.600 200.000 25.600 L 269.080 25.600 270.759 26.816 M58.744 31.557 C 59.241 31.872,60.800 31.717,60.800 31.353 C 60.800 31.269,60.215 31.203,59.500 31.206 C 58.616 31.210,58.374 31.323,58.744 31.557 M339.200 31.353 C 339.200 31.717,340.759 31.872,341.256 31.557 C 341.626 31.323,341.384 31.210,340.500 31.206 C 339.785 31.203,339.200 31.269,339.200 31.353 M192.600 36.866 C 191.217 37.629,189.535 39.334,188.346 41.178 L 187.200 42.957 187.200 62.286 L 187.200 81.616 188.163 83.141 C 189.448 85.176,191.172 86.575,194.408 88.204 C 197.059 89.539,200.800 92.792,200.800 93.763 C 200.800 95.475,197.350 99.095,194.179 100.710 C 192.264 101.685,189.398 104.452,188.516 106.176 C 187.338 108.479,185.486 110.770,184.043 111.710 C 178.295 115.453,177.997 115.717,175.859 118.943 C 173.319 122.777,172.667 123.398,169.133 125.338 C 166.433 126.820,163.350 129.841,162.980 131.367 C 162.868 131.825,162.626 140.390,162.440 150.400 L 162.103 168.600 163.049 170.266 C 165.152 173.974,168.360 175.785,170.488 174.468 C 174.779 171.813,175.444 170.121,175.168 162.561 L 174.937 156.200 176.369 154.000 C 177.451 152.338,178.634 151.252,181.205 149.560 C 183.261 148.207,185.014 146.703,185.634 145.760 C 186.199 144.902,187.330 143.156,188.148 141.880 C 189.225 140.199,190.318 139.131,192.117 138.000 C 196.780 135.070,197.775 134.165,199.400 131.375 C 201.654 127.507,202.514 126.599,205.514 124.921 C 208.730 123.123,210.848 121.069,212.164 118.471 C 213.518 115.798,214.955 114.177,217.064 112.941 L 218.845 111.898 220.933 113.336 C 222.221 114.223,223.553 115.629,224.410 117.005 C 227.162 121.422,228.229 122.596,231.018 124.275 C 234.661 126.469,236.014 127.801,237.936 131.085 C 239.799 134.268,240.576 135.050,243.800 136.983 C 247.070 138.943,248.530 140.401,250.368 143.535 C 252.223 146.700,253.388 147.856,256.615 149.733 C 263.966 154.010,264.361 157.930,257.855 162.018 C 253.224 164.927,252.223 165.839,250.600 168.625 C 248.346 172.493,247.486 173.401,244.486 175.079 C 241.255 176.885,239.152 178.933,237.814 181.572 C 236.350 184.462,234.760 186.097,231.964 187.587 C 229.213 189.053,226.783 191.286,225.771 193.279 C 224.641 195.504,222.441 197.942,220.578 199.034 L 218.805 200.073 211.702 199.801 C 201.464 199.409,201.061 199.248,200.531 195.316 C 200.150 192.494,198.186 189.761,195.163 187.847 C 193.692 186.916,157.241 187.545,155.327 188.534 C 153.703 189.374,151.434 191.964,150.215 194.371 C 148.810 197.142,147.016 199.071,144.544 200.466 C 142.136 201.826,139.431 204.388,138.516 206.176 C 137.338 208.479,135.486 210.770,134.043 211.710 C 129.035 214.971,127.980 215.795,127.115 217.122 C 122.971 223.474,123.470 222.976,117.132 227.107 C 116.325 227.634,115.200 228.734,114.632 229.554 L 113.600 231.043 113.600 243.930 L 113.600 256.818 115.277 258.637 C 116.199 259.638,117.774 260.927,118.777 261.502 C 121.756 263.210,123.444 264.687,124.759 266.736 L 126.000 268.670 126.000 275.064 C 126.000 283.045,126.340 283.680,132.469 287.141 C 135.011 288.578,136.781 290.406,138.052 292.911 C 139.103 294.983,140.419 296.584,142.288 298.070 L 143.710 299.200 150.211 299.200 L 156.713 299.200 158.656 300.522 C 159.895 301.364,161.180 302.769,162.200 304.393 C 163.080 305.796,164.828 307.991,166.085 309.272 L 168.371 311.600 174.838 311.600 C 182.224 311.600,183.079 311.877,185.123 314.936 C 187.250 318.119,187.200 317.572,187.200 337.839 C 187.200 358.869,187.066 357.721,189.893 360.850 C 192.248 363.457,192.774 363.600,200.000 363.600 C 207.226 363.600,207.752 363.457,210.107 360.850 C 212.936 357.719,212.800 358.894,212.800 337.612 L 212.800 318.384 211.837 316.859 C 210.552 314.824,208.828 313.425,205.592 311.796 C 202.941 310.461,199.200 307.208,199.200 306.237 C 199.200 304.525,202.650 300.905,205.821 299.290 C 207.736 298.315,210.602 295.548,211.484 293.824 C 212.662 291.521,214.514 289.230,215.957 288.290 C 221.705 284.547,222.003 284.283,224.141 281.057 C 226.681 277.223,227.333 276.602,230.867 274.662 C 233.567 273.180,236.650 270.159,237.020 268.633 C 237.132 268.175,237.374 259.610,237.560 249.600 L 237.897 231.400 236.951 229.734 C 234.848 226.026,231.640 224.215,229.512 225.532 C 225.221 228.187,224.556 229.879,224.832 237.439 L 225.063 243.800 223.631 246.000 C 222.549 247.662,221.366 248.748,218.795 250.440 C 216.739 251.793,214.986 253.297,214.366 254.240 C 213.801 255.098,212.670 256.844,211.852 258.120 C 210.775 259.801,209.682 260.869,207.883 262.000 C 203.220 264.930,202.225 265.835,200.600 268.625 C 198.346 272.493,197.486 273.401,194.486 275.079 C 191.270 276.877,189.152 278.931,187.836 281.529 C 186.482 284.202,185.045 285.823,182.936 287.059 L 181.155 288.102 179.067 286.664 C 177.779 285.777,176.447 284.371,175.590 282.995 C 172.838 278.578,171.771 277.404,168.982 275.725 C 165.339 273.531,163.986 272.199,162.064 268.915 C 160.201 265.732,159.424 264.950,156.200 263.017 C 152.970 261.081,151.473 259.603,149.765 256.668 C 147.861 253.397,146.711 252.229,143.589 250.399 C 136.019 245.962,135.571 242.112,142.145 237.982 C 146.776 235.073,147.777 234.161,149.400 231.375 C 151.654 227.507,152.514 226.599,155.514 224.921 C 158.745 223.115,160.848 221.067,162.186 218.428 C 163.650 215.538,165.240 213.903,168.036 212.413 C 170.787 210.947,173.217 208.714,174.229 206.721 C 175.359 204.496,177.559 202.058,179.422 200.966 L 181.195 199.927 188.298 200.199 C 198.536 200.591,198.939 200.752,199.469 204.684 C 199.850 207.506,201.814 210.239,204.837 212.153 C 206.308 213.084,242.759 212.455,244.673 211.466 C 246.297 210.626,248.566 208.036,249.785 205.629 C 251.190 202.858,252.984 200.929,255.456 199.534 C 257.864 198.174,260.569 195.612,261.484 193.824 C 262.662 191.521,264.514 189.230,265.957 188.290 C 270.965 185.029,272.020 184.205,272.885 182.878 C 277.029 176.526,276.530 177.024,282.868 172.893 C 283.675 172.366,284.800 171.266,285.368 170.446 L 286.400 168.957 286.400 156.070 L 286.400 143.182 284.723 141.363 C 283.801 140.362,282.226 139.073,281.223 138.498 C 278.244 136.790,276.556 135.313,275.241 133.264 L 274.000 131.330 274.000 124.936 C 274.000 116.955,273.660 116.320,267.531 112.859 C 264.989 111.422,263.219 109.594,261.948 107.089 C 260.897 105.017,259.581 103.416,257.712 101.930 L 256.290 100.800 249.789 100.800 L 243.287 100.800 241.344 99.478 C 240.105 98.636,238.820 97.231,237.800 95.607 C 236.920 94.204,235.172 92.009,233.915 90.728 L 231.629 88.400 225.162 88.400 C 217.776 88.400,216.921 88.123,214.877 85.064 C 212.750 81.881,212.800 82.428,212.800 62.161 C 212.800 41.131,212.934 42.279,210.107 39.150 C 207.745 36.535,207.237 36.399,199.920 36.412 C 195.939 36.420,193.088 36.596,192.600 36.866 M208.761 40.633 C 211.439 43.564,211.277 41.905,211.096 64.436 C 210.913 87.329,210.707 88.852,207.529 90.784 L 206.310 91.526 204.569 90.197 C 202.739 88.800,199.963 87.626,195.859 86.514 C 193.188 85.790,191.608 84.725,189.900 82.494 L 188.800 81.057 188.800 62.418 C 188.800 41.644,188.565 43.426,191.742 40.100 L 193.367 38.400 200.043 38.400 L 206.720 38.400 208.761 40.633 M50.261 43.900 C 50.158 44.065,51.093 44.149,52.337 44.087 C 56.244 43.892,56.715 43.722,53.524 43.660 C 51.832 43.627,50.363 43.735,50.261 43.900 M344.400 43.847 C 346.749 44.145,349.911 44.177,349.739 43.900 C 349.637 43.735,348.168 43.627,346.476 43.660 C 344.784 43.693,343.850 43.777,344.400 43.847 M43.768 50.540 C 43.654 50.837,43.617 52.322,43.685 53.840 L 43.810 56.600 44.005 53.299 C 44.200 50.003,44.158 49.522,43.768 50.540 M355.996 53.318 L 356.193 56.600 356.315 53.639 C 356.382 52.010,356.294 50.533,356.119 50.357 C 355.943 50.180,355.888 51.513,355.996 53.318 M31.206 59.500 C 31.203 60.215,31.269 60.800,31.353 60.800 C 31.717 60.800,31.872 59.241,31.557 58.744 C 31.323 58.374,31.210 58.616,31.206 59.500 M368.298 58.900 C 368.195 59.175,368.253 59.760,368.427 60.200 C 368.685 60.851,368.749 60.759,368.772 59.700 C 368.801 58.348,368.620 58.042,368.298 58.900 M20.400 69.092 C 20.730 69.217,21.132 69.518,21.294 69.760 C 21.475 70.031,21.590 69.932,21.594 69.500 C 21.598 69.030,21.305 68.810,20.700 68.832 C 20.099 68.853,19.999 68.939,20.400 69.092 M378.406 69.500 C 378.410 69.932,378.525 70.031,378.706 69.760 C 378.868 69.518,379.270 69.217,379.600 69.092 C 380.001 68.939,379.901 68.853,379.300 68.832 C 378.695 68.810,378.402 69.030,378.406 69.500 M18.832 70.700 C 18.810 71.305,19.030 71.598,19.500 71.594 C 19.932 71.590,20.031 71.475,19.760 71.294 C 19.518 71.132,19.217 70.730,19.092 70.400 C 18.939 69.999,18.853 70.099,18.832 70.700 M380.800 70.567 C 380.800 70.878,380.575 71.224,380.300 71.335 C 380.001 71.456,380.082 71.550,380.500 71.568 C 380.944 71.588,381.200 71.307,381.200 70.800 C 381.200 70.360,381.110 70.000,381.000 70.000 C 380.890 70.000,380.800 70.255,380.800 70.567 M14.500 93.891 C 15.325 93.978,16.675 93.978,17.500 93.891 C 18.325 93.805,17.650 93.734,16.000 93.734 C 14.350 93.734,13.675 93.805,14.500 93.891 M382.500 93.891 C 383.325 93.978,384.675 93.978,385.500 93.891 C 386.325 93.805,385.650 93.734,384.000 93.734 C 382.350 93.734,381.675 93.805,382.500 93.891 M232.148 103.038 C 232.685 103.828,233.771 104.914,234.561 105.451 C 235.351 105.988,236.359 107.136,236.802 108.003 C 237.936 110.228,240.053 112.213,242.730 113.565 C 245.384 114.905,247.844 117.398,249.128 120.051 C 250.339 122.553,252.393 124.581,255.127 125.974 C 257.882 127.377,260.362 129.885,261.753 132.675 C 262.985 135.144,265.014 137.214,267.145 138.175 C 268.140 138.624,269.009 139.434,269.575 140.441 C 270.059 141.303,271.162 142.411,272.025 142.904 L 273.594 143.800 273.592 156.200 L 273.590 168.600 272.183 169.512 C 271.409 170.013,270.286 171.122,269.688 171.975 C 269.090 172.829,268.013 173.812,267.296 174.159 C 265.320 175.116,262.617 177.789,261.806 179.586 C 261.391 180.506,260.520 181.522,259.763 181.969 C 259.037 182.397,257.886 183.517,257.205 184.457 C 256.524 185.397,255.453 186.382,254.825 186.646 C 253.109 187.368,250.447 189.939,249.517 191.773 C 249.064 192.668,248.184 193.982,247.563 194.694 C 246.163 196.300,245.289 199.162,244.947 203.256 C 244.636 206.986,244.672 206.950,240.600 207.728 C 238.840 208.065,236.860 208.456,236.200 208.597 C 235.540 208.738,230.860 209.008,225.800 209.197 C 220.740 209.386,214.196 209.887,211.257 210.311 L 205.914 211.081 203.709 208.928 C 201.194 206.473,201.058 205.227,203.077 203.119 C 204.637 201.491,206.226 201.371,213.017 202.364 C 219.530 203.317,220.102 203.277,223.800 201.601 C 226.695 200.289,227.765 199.200,229.600 195.694 L 231.000 193.019 234.313 192.513 C 240.435 191.578,241.830 190.084,242.634 183.600 C 242.983 180.778,243.216 180.523,245.720 180.208 C 252.509 179.354,254.412 177.569,255.037 171.466 C 255.369 168.225,255.837 167.769,259.112 167.489 C 265.527 166.940,267.401 164.387,267.398 156.200 C 267.395 147.572,265.040 144.839,257.580 144.806 C 255.788 144.798,255.202 144.212,255.194 142.420 C 255.165 135.976,252.550 133.034,246.388 132.518 C 243.050 132.238,243.030 132.216,242.503 128.321 C 241.713 122.486,240.007 120.778,234.163 119.975 C 230.316 119.446,230.554 119.681,230.033 115.889 C 229.169 109.605,227.379 107.976,220.669 107.368 C 212.265 106.606,208.511 108.910,207.539 115.426 C 206.957 119.332,206.855 119.468,204.280 119.792 C 197.491 120.646,195.588 122.431,194.963 128.534 C 194.631 131.775,194.163 132.231,190.888 132.511 C 185.533 132.970,182.971 135.531,182.510 140.888 C 182.249 143.924,182.037 144.217,179.216 145.463 C 172.995 148.210,171.264 152.908,172.759 162.987 L 173.588 168.575 172.574 170.038 C 172.016 170.842,170.912 171.962,170.120 172.525 L 168.680 173.550 167.367 172.548 C 166.645 171.997,165.573 170.916,164.986 170.146 L 163.918 168.745 164.761 162.873 C 165.342 158.826,165.603 155.010,165.600 150.600 C 165.595 144.287,167.108 132.156,168.049 130.962 C 168.239 130.721,170.241 130.303,172.497 130.032 C 176.725 129.524,179.627 128.549,180.754 127.258 C 181.110 126.851,182.006 126.207,182.746 125.825 C 184.805 124.765,187.389 122.198,188.194 120.414 C 188.609 119.494,189.480 118.478,190.237 118.031 C 190.963 117.603,192.114 116.483,192.795 115.543 C 193.476 114.603,194.547 113.618,195.175 113.354 C 196.988 112.591,199.577 110.019,200.638 107.925 C 201.174 106.866,201.790 106.000,202.006 106.000 C 202.626 106.000,205.540 103.218,205.810 102.369 C 206.044 101.632,206.575 101.600,218.613 101.600 L 231.171 101.600 232.148 103.038 M41.600 188.041 C 36.975 190.811,36.400 192.134,36.400 200.000 C 36.400 207.226,36.543 207.752,39.150 210.107 C 42.281 212.936,41.106 212.800,62.388 212.800 L 81.616 212.800 83.108 211.848 C 87.289 209.180,87.997 207.463,87.997 200.000 C 87.997 192.537,87.289 190.820,83.108 188.152 L 81.616 187.200 62.308 187.201 C 43.419 187.203,42.970 187.221,41.600 188.041 M317.200 187.897 C 312.706 190.839,312.000 192.481,312.001 199.978 C 312.003 207.466,312.709 209.178,316.892 211.848 L 318.384 212.800 337.612 212.800 C 358.894 212.800,357.719 212.936,360.850 210.107 C 363.457 207.752,363.600 207.226,363.600 200.000 C 363.600 192.153,362.730 190.246,358.044 187.823 C 356.182 186.860,318.680 186.928,317.200 187.897 M82.494 189.900 C 85.923 192.525,86.000 192.748,86.000 200.000 C 86.000 207.252,85.923 207.475,82.494 210.100 L 81.057 211.200 62.418 211.200 C 41.644 211.200,43.426 211.435,40.100 208.258 L 38.400 206.633 38.400 200.000 L 38.400 193.367 40.100 191.742 C 43.426 188.565,41.644 188.800,62.418 188.800 L 81.057 188.800 82.494 189.900 M197.623 192.432 C 198.676 193.912,198.404 195.463,196.825 196.976 C 195.228 198.506,193.449 198.621,186.836 197.619 C 180.615 196.677,179.831 196.734,176.200 198.391 C 173.302 199.714,172.233 200.804,170.400 204.306 L 169.000 206.981 165.687 207.487 C 159.565 208.422,158.170 209.916,157.366 216.400 C 157.017 219.222,156.784 219.477,154.280 219.792 C 147.491 220.646,145.588 222.431,144.963 228.534 C 144.631 231.775,144.163 232.231,140.888 232.511 C 134.473 233.060,132.599 235.613,132.602 243.800 C 132.605 252.428,134.960 255.161,142.420 255.194 C 144.212 255.202,144.798 255.788,144.806 257.580 C 144.835 264.024,147.450 266.966,153.612 267.482 C 156.950 267.762,156.970 267.784,157.497 271.679 C 158.287 277.514,159.993 279.222,165.837 280.025 C 169.684 280.554,169.446 280.319,169.967 284.111 C 170.831 290.395,172.621 292.024,179.331 292.632 C 187.735 293.394,191.489 291.090,192.461 284.574 C 193.043 280.668,193.145 280.532,195.720 280.208 C 202.509 279.354,204.412 277.569,205.037 271.466 C 205.369 268.225,205.837 267.769,209.112 267.489 C 214.467 267.030,217.029 264.469,217.490 259.112 C 217.751 256.076,217.963 255.783,220.784 254.537 C 227.005 251.790,228.736 247.092,227.241 237.013 L 226.412 231.425 227.426 229.962 C 227.984 229.158,229.088 228.038,229.880 227.475 L 231.320 226.450 232.633 227.452 C 233.355 228.003,234.427 229.084,235.014 229.854 L 236.082 231.255 235.239 237.127 C 234.658 241.174,234.397 244.990,234.400 249.400 C 234.405 255.713,232.892 267.844,231.951 269.038 C 231.761 269.279,229.759 269.697,227.503 269.968 C 223.275 270.476,220.373 271.451,219.246 272.742 C 218.890 273.149,217.994 273.793,217.254 274.175 C 215.195 275.235,212.611 277.802,211.806 279.586 C 211.391 280.506,210.520 281.522,209.763 281.969 C 209.037 282.397,207.886 283.517,207.205 284.457 C 206.524 285.397,205.453 286.382,204.825 286.646 C 203.021 287.405,200.425 289.978,199.377 292.045 C 198.849 293.088,198.067 294.052,197.639 294.188 C 196.779 294.461,194.000 297.372,194.000 298.001 C 194.000 298.258,189.514 298.400,181.414 298.400 L 168.829 298.400 167.852 296.962 C 167.315 296.172,166.229 295.086,165.439 294.549 C 164.649 294.012,163.641 292.864,163.198 291.997 C 162.064 289.772,159.947 287.787,157.270 286.435 C 154.616 285.095,152.156 282.602,150.872 279.949 C 149.661 277.447,147.607 275.419,144.873 274.026 C 142.118 272.623,139.638 270.115,138.247 267.325 C 137.015 264.856,134.986 262.786,132.855 261.825 C 131.860 261.376,130.991 260.566,130.425 259.559 C 129.941 258.697,128.838 257.589,127.975 257.096 L 126.406 256.200 126.408 243.800 L 126.410 231.400 127.817 230.488 C 128.591 229.987,129.714 228.878,130.312 228.025 C 130.910 227.171,131.987 226.188,132.704 225.841 C 134.680 224.884,137.383 222.211,138.194 220.414 C 138.609 219.494,139.480 218.478,140.237 218.031 C 140.963 217.603,142.114 216.483,142.795 215.543 C 143.476 214.603,144.547 213.618,145.175 213.354 C 146.891 212.632,149.553 210.061,150.483 208.227 C 150.936 207.332,151.816 206.018,152.437 205.306 C 153.837 203.700,154.711 200.838,155.053 196.744 C 155.364 193.014,155.328 193.050,159.400 192.272 C 161.160 191.935,163.140 191.545,163.800 191.405 C 164.460 191.264,169.230 190.983,174.400 190.780 C 179.570 190.577,186.050 190.081,188.800 189.679 L 193.800 188.947 195.292 190.101 C 196.113 190.736,197.162 191.785,197.623 192.432 M357.211 189.459 C 357.755 189.822,358.965 190.849,359.900 191.742 L 361.600 193.367 361.600 200.000 L 361.600 206.633 359.900 208.258 C 356.574 211.435,358.356 211.200,337.582 211.200 L 318.943 211.200 317.506 210.100 C 314.077 207.475,314.000 207.252,314.000 200.000 C 314.000 192.748,314.077 192.525,317.506 189.900 L 318.943 188.800 337.582 188.800 C 354.227 188.800,356.328 188.871,357.211 189.459 M14.500 306.291 C 15.325 306.378,16.675 306.378,17.500 306.291 C 18.325 306.205,17.650 306.134,16.000 306.134 C 14.350 306.134,13.675 306.205,14.500 306.291 M382.500 306.291 C 383.325 306.378,384.675 306.378,385.500 306.291 C 386.325 306.205,385.650 306.134,384.000 306.134 C 382.350 306.134,381.675 306.205,382.500 306.291 M199.427 311.976 C 200.667 312.440,202.788 313.119,204.141 313.486 C 206.812 314.210,208.392 315.275,210.100 317.506 L 211.200 318.943 211.200 337.582 C 211.200 358.356,211.435 356.574,208.258 359.900 L 206.633 361.600 199.957 361.600 L 193.280 361.600 191.239 359.367 C 188.561 356.436,188.723 358.095,188.904 335.564 C 189.087 312.671,189.293 311.148,192.471 309.216 L 193.690 308.474 195.431 309.803 C 196.389 310.534,198.187 311.512,199.427 311.976 M18.832 329.300 C 18.853 329.901,18.939 330.001,19.092 329.600 C 19.217 329.270,19.518 328.868,19.760 328.706 C 20.031 328.525,19.932 328.410,19.500 328.406 C 19.030 328.402,18.810 328.695,18.832 329.300 M380.240 328.706 C 380.482 328.868,380.783 329.270,380.908 329.600 C 381.061 330.001,381.147 329.901,381.168 329.300 C 381.190 328.695,380.970 328.402,380.500 328.406 C 380.068 328.410,379.969 328.525,380.240 328.706 M21.200 330.371 C 21.200 330.575,20.885 330.824,20.500 330.924 C 19.973 331.062,20.023 331.119,20.700 331.154 C 21.254 331.182,21.600 330.969,21.600 330.600 C 21.600 330.270,21.510 330.000,21.400 330.000 C 21.290 330.000,21.200 330.167,21.200 330.371 M378.406 330.500 C 378.402 330.970,378.695 331.190,379.300 331.168 C 379.901 331.147,380.001 331.061,379.600 330.908 C 379.270 330.783,378.868 330.482,378.706 330.240 C 378.525 329.969,378.410 330.068,378.406 330.500 M31.206 340.500 C 31.210 341.384,31.323 341.626,31.557 341.256 C 31.872 340.759,31.717 339.200,31.353 339.200 C 31.269 339.200,31.203 339.785,31.206 340.500 M368.296 339.956 C 368.187 340.371,368.253 340.956,368.443 341.256 C 368.677 341.626,368.790 341.384,368.794 340.500 C 368.801 339.045,368.593 338.818,368.296 339.956 M43.660 346.476 C 43.627 348.168,43.735 349.637,43.900 349.739 C 44.065 349.842,44.149 348.907,44.087 347.663 C 43.892 343.756,43.722 343.285,43.660 346.476 M355.996 346.682 C 355.888 348.487,355.943 349.820,356.119 349.643 C 356.294 349.467,356.382 347.990,356.315 346.361 L 356.193 343.400 355.996 346.682 M50.357 356.119 C 50.533 356.294,52.010 356.382,53.639 356.315 L 56.600 356.193 53.318 355.996 C 51.513 355.888,50.180 355.943,50.357 356.119 M346.600 356.000 L 343.400 356.253 346.476 356.327 C 348.180 356.367,349.663 356.222,349.800 356.000 C 349.936 355.780,349.992 355.633,349.924 355.673 C 349.856 355.714,348.360 355.861,346.600 356.000 M58.744 368.443 C 58.374 368.677,58.616 368.790,59.500 368.794 C 60.215 368.797,60.800 368.731,60.800 368.647 C 60.800 368.283,59.241 368.128,58.744 368.443 M339.800 368.427 C 339.149 368.685,339.241 368.749,340.300 368.772 C 341.652 368.801,341.958 368.620,341.100 368.298 C 340.825 368.195,340.240 368.253,339.800 368.427 M68.832 379.300 C 68.853 379.901,68.939 380.001,69.092 379.600 C 69.217 379.270,69.518 378.868,69.760 378.706 C 70.031 378.525,69.932 378.410,69.500 378.406 C 69.030 378.402,68.810 378.695,68.832 379.300 M330.240 378.706 C 330.482 378.868,330.783 379.270,330.908 379.600 C 331.061 380.001,331.147 379.901,331.168 379.300 C 331.190 378.695,330.970 378.402,330.500 378.406 C 330.068 378.410,329.969 378.525,330.240 378.706 M71.200 380.371 C 71.200 380.575,70.885 380.824,70.500 380.924 C 69.973 381.062,70.023 381.119,70.700 381.154 C 71.254 381.182,71.600 380.969,71.600 380.600 C 71.600 380.270,71.510 380.000,71.400 380.000 C 71.290 380.000,71.200 380.167,71.200 380.371 M328.406 380.500 C 328.402 380.970,328.695 381.190,329.300 381.168 C 329.901 381.147,330.001 381.061,329.600 380.908 C 329.270 380.783,328.868 380.482,328.706 380.240 C 328.525 379.969,328.410 380.068,328.406 380.500 M93.737 384.200 C 93.739 385.960,93.809 386.630,93.893 385.689 C 93.978 384.749,93.977 383.309,93.891 382.489 C 93.805 381.670,93.736 382.440,93.737 384.200 M306.137 384.200 C 306.139 385.960,306.209 386.630,306.293 385.689 C 306.378 384.749,306.377 383.309,306.291 382.489 C 306.205 381.670,306.136 382.440,306.137 384.200 " stroke="none" fill="#4cd4e4" fill-rule="evenodd"></path><path id="path4" d="M178.942 38.179 C 177.825 38.931,176.391 40.364,175.755 41.363 C 175.120 42.362,174.080 44.011,173.444 45.028 C 172.808 46.045,171.566 47.399,170.684 48.038 L 169.080 49.200 156.440 49.201 C 141.191 49.203,140.914 49.295,137.197 55.600 C 135.410 58.632,133.294 60.768,130.882 61.975 C 128.392 63.221,126.191 65.361,124.747 67.941 C 121.530 73.691,120.142 74.400,112.109 74.400 C 106.893 74.400,105.604 74.516,104.789 75.060 C 102.789 76.394,100.705 78.650,99.751 80.514 C 98.343 83.267,96.296 85.364,93.469 86.953 C 90.637 88.544,88.608 90.557,87.018 93.350 C 85.376 96.234,83.496 98.130,80.907 99.515 C 78.679 100.706,76.430 102.734,75.060 104.789 C 74.516 105.604,74.400 106.893,74.400 112.109 C 74.400 120.125,73.686 121.530,68.000 124.716 C 65.384 126.182,63.705 127.881,62.188 130.600 C 60.617 133.415,58.616 135.419,55.600 137.197 C 49.295 140.914,49.203 141.191,49.201 156.440 L 49.200 169.080 47.984 170.759 C 47.315 171.683,45.920 172.956,44.884 173.588 C 43.848 174.221,42.227 175.222,41.281 175.813 C 38.905 177.298,36.528 180.806,37.505 181.387 C 37.950 181.651,46.834 181.884,62.200 182.033 C 95.070 182.353,92.800 181.020,92.800 200.000 C 92.800 218.980,95.070 217.647,62.200 217.967 C 46.834 218.116,37.950 218.349,37.505 218.613 C 36.528 219.194,38.905 222.702,41.281 224.187 C 42.227 224.778,43.848 225.779,44.884 226.412 C 45.920 227.044,47.315 228.317,47.984 229.241 L 49.200 230.920 49.201 243.560 C 49.203 258.809,49.295 259.086,55.600 262.803 C 58.616 264.581,60.617 266.585,62.188 269.400 C 63.705 272.119,65.384 273.818,68.000 275.284 C 73.686 278.470,74.400 279.875,74.400 287.891 C 74.400 293.107,74.516 294.396,75.060 295.211 C 76.430 297.266,78.679 299.294,80.907 300.485 C 83.496 301.870,85.376 303.766,87.018 306.650 C 88.608 309.443,90.637 311.456,93.469 313.047 C 96.296 314.636,98.343 316.733,99.751 319.486 C 100.705 321.350,102.789 323.606,104.789 324.940 C 105.604 325.484,106.893 325.600,112.109 325.600 C 120.142 325.600,121.530 326.309,124.747 332.059 C 126.191 334.639,128.392 336.779,130.882 338.025 C 133.294 339.232,135.410 341.368,137.197 344.400 C 140.914 350.705,141.191 350.797,156.440 350.799 L 169.080 350.800 170.671 351.952 C 172.153 353.026,172.711 353.759,175.744 358.608 C 177.286 361.076,180.794 363.492,181.387 362.495 C 182.013 361.441,182.192 318.914,181.573 318.168 C 181.198 317.716,179.621 317.599,173.851 317.594 C 161.307 317.583,158.725 316.231,157.669 309.120 C 157.072 305.099,157.591 305.315,148.088 305.119 C 135.697 304.864,133.892 303.883,132.742 296.775 C 132.132 293.011,132.050 292.931,128.093 292.240 C 121.101 291.019,120.280 289.499,120.075 277.400 C 119.913 267.795,119.930 267.846,116.686 267.455 C 107.997 266.408,107.191 264.370,107.214 243.523 C 107.237 222.960,108.489 220.080,117.438 220.010 C 119.137 219.996,119.848 219.014,120.156 216.253 C 120.780 210.668,122.601 208.719,128.093 207.760 C 132.043 207.071,132.133 206.984,132.732 203.280 C 133.654 197.576,135.191 196.099,141.264 195.079 C 144.538 194.530,144.545 194.521,145.167 190.438 C 146.399 182.353,147.585 182.067,180.000 182.032 C 203.272 182.007,204.251 182.333,205.155 190.414 C 205.619 194.561,205.145 194.286,212.410 194.617 C 219.679 194.947,219.456 195.055,220.036 190.927 C 220.831 185.269,223.012 183.085,228.404 182.550 C 231.792 182.214,232.229 181.787,232.535 178.519 C 233.046 173.047,235.234 170.836,240.927 170.036 C 244.370 169.552,244.639 169.310,244.969 166.397 C 245.665 160.238,247.309 158.482,253.230 157.573 C 257.976 156.844,258.420 155.546,254.096 155.041 C 247.575 154.280,246.033 152.861,245.085 146.749 C 244.499 142.975,244.627 143.089,240.017 142.249 C 234.841 141.306,233.040 139.290,232.534 133.872 C 232.235 130.667,232.017 130.455,228.527 129.964 C 222.859 129.168,220.831 127.134,220.031 121.442 C 219.382 116.821,217.899 116.839,217.466 121.472 C 216.954 126.954,214.770 129.164,209.073 129.964 C 205.630 130.448,205.361 130.690,205.031 133.603 C 204.335 139.762,202.691 141.518,196.770 142.427 C 193.004 143.006,192.983 143.026,192.442 146.660 C 191.549 152.667,189.791 154.331,183.603 155.031 C 180.380 155.396,180.498 155.032,180.305 165.200 C 180.050 178.608,179.348 179.696,170.576 180.271 C 166.377 180.546,162.003 179.914,160.140 178.763 C 157.411 177.076,157.414 177.100,157.280 152.600 C 157.112 121.704,157.211 121.331,165.978 120.015 C 169.690 119.458,169.830 119.336,170.139 116.383 C 170.730 110.722,172.573 108.724,178.093 107.760 C 182.043 107.071,182.133 106.984,182.732 103.280 C 183.649 97.607,185.276 96.028,191.127 95.127 C 195.413 94.468,196.018 92.800,191.971 92.800 C 182.331 92.800,182.331 92.800,182.033 62.200 C 181.769 35.026,181.917 36.175,178.942 38.179 M218.548 37.502 C 217.986 38.669,217.870 81.161,218.427 81.832 C 218.802 82.284,220.379 82.401,226.149 82.406 C 238.693 82.417,241.275 83.769,242.331 90.880 C 242.928 94.901,242.409 94.685,251.912 94.881 C 264.303 95.136,266.108 96.117,267.258 103.225 C 267.868 106.989,267.950 107.069,271.907 107.760 C 278.899 108.981,279.720 110.501,279.925 122.600 C 280.087 132.205,280.070 132.154,283.314 132.545 C 292.003 133.592,292.809 135.630,292.786 156.477 C 292.763 177.040,291.511 179.920,282.562 179.990 C 280.863 180.004,280.152 180.986,279.844 183.747 C 279.220 189.332,277.399 191.281,271.907 192.240 C 267.957 192.929,267.867 193.016,267.268 196.720 C 266.346 202.424,264.809 203.901,258.736 204.921 C 255.462 205.470,255.455 205.479,254.833 209.562 C 253.601 217.647,252.415 217.933,220.000 217.968 C 196.728 217.993,195.749 217.667,194.845 209.586 C 194.381 205.439,194.855 205.714,187.590 205.383 C 180.321 205.053,180.544 204.945,179.964 209.073 C 179.164 214.766,176.953 216.954,171.481 217.465 C 168.213 217.771,167.786 218.208,167.450 221.596 C 166.915 226.988,164.731 229.169,159.073 229.964 C 155.630 230.448,155.361 230.690,155.031 233.603 C 154.335 239.762,152.691 241.518,146.770 242.427 C 142.024 243.156,141.580 244.454,145.904 244.959 C 152.425 245.720,153.967 247.139,154.915 253.251 C 155.501 257.025,155.373 256.911,159.983 257.751 C 165.159 258.694,166.960 260.710,167.466 266.128 C 167.765 269.333,167.983 269.545,171.473 270.036 C 177.141 270.832,179.169 272.866,179.969 278.558 C 180.618 283.179,182.101 283.161,182.534 278.528 C 183.046 273.046,185.230 270.836,190.927 270.036 C 194.370 269.552,194.639 269.310,194.969 266.397 C 195.665 260.238,197.309 258.482,203.230 257.573 C 206.996 256.994,207.017 256.974,207.558 253.340 C 208.451 247.333,210.209 245.669,216.397 244.969 C 219.620 244.604,219.501 244.969,219.706 234.800 C 219.936 223.416,220.470 221.778,224.400 220.428 C 228.234 219.110,237.176 219.578,239.860 221.237 C 242.589 222.924,242.586 222.900,242.720 247.400 C 242.888 278.296,242.789 278.669,234.022 279.985 C 230.310 280.542,230.170 280.664,229.861 283.617 C 229.270 289.278,227.427 291.276,221.907 292.240 C 217.957 292.929,217.867 293.016,217.268 296.720 C 216.351 302.393,214.724 303.972,208.873 304.873 C 204.587 305.532,203.982 307.200,208.029 307.200 C 217.669 307.200,217.669 307.200,217.967 337.800 C 218.116 353.166,218.349 362.050,218.613 362.495 C 219.201 363.485,222.675 361.105,224.245 358.637 C 224.880 357.638,225.920 355.989,226.556 354.972 C 227.192 353.955,228.434 352.601,229.316 351.962 L 230.920 350.800 243.560 350.799 C 258.809 350.797,259.086 350.705,262.803 344.400 C 264.590 341.368,266.706 339.232,269.118 338.025 C 271.608 336.779,273.809 334.639,275.253 332.059 C 278.470 326.309,279.858 325.600,287.891 325.600 C 293.107 325.600,294.396 325.484,295.211 324.940 C 297.211 323.606,299.295 321.350,300.249 319.486 C 301.657 316.733,303.704 314.636,306.531 313.047 C 309.363 311.456,311.392 309.443,312.982 306.650 C 314.624 303.766,316.504 301.870,319.093 300.485 C 321.321 299.294,323.570 297.266,324.940 295.211 C 325.484 294.396,325.600 293.107,325.600 287.891 C 325.600 279.875,326.314 278.470,332.000 275.284 C 334.616 273.818,336.295 272.119,337.812 269.400 C 339.383 266.585,341.384 264.581,344.400 262.803 C 350.705 259.086,350.797 258.809,350.799 243.560 L 350.800 230.920 352.016 229.241 C 352.685 228.317,354.080 227.044,355.116 226.412 C 356.152 225.779,357.773 224.778,358.719 224.187 C 361.095 222.702,363.472 219.194,362.495 218.613 C 362.050 218.349,353.166 218.116,337.800 217.967 C 304.930 217.647,307.200 218.980,307.200 200.000 C 307.200 181.020,304.930 182.353,337.800 182.033 C 353.166 181.884,362.050 181.651,362.495 181.387 C 363.472 180.806,361.095 177.298,358.719 175.813 C 357.773 175.222,356.152 174.221,355.116 173.588 C 354.080 172.956,352.685 171.683,352.016 170.759 L 350.800 169.080 350.799 156.440 C 350.797 141.191,350.705 140.914,344.400 137.197 C 341.384 135.419,339.383 133.415,337.812 130.600 C 336.295 127.881,334.616 126.182,332.000 124.716 C 329.474 123.301,326.990 121.088,326.167 119.520 C 325.713 118.654,325.600 115.946,325.600 105.888 L 325.600 93.337 324.345 91.442 C 323.654 90.400,322.172 88.929,321.050 88.173 L 319.011 86.800 312.685 86.800 C 304.700 86.800,303.034 85.958,300.249 80.514 C 299.295 78.650,297.211 76.394,295.211 75.060 C 294.396 74.516,293.107 74.400,287.891 74.400 C 279.858 74.400,278.470 73.691,275.253 67.941 C 273.809 65.361,271.608 63.221,269.118 61.975 C 266.706 60.768,264.590 58.632,262.803 55.600 C 259.090 49.301,258.797 49.203,243.647 49.201 C 228.606 49.200,228.402 49.130,225.237 42.883 C 223.585 39.624,219.218 36.110,218.548 37.502 " stroke="none" fill="#040404" fill-rule="evenodd"></path></g></svg>